<svg height="512" viewBox="0 0 64 64" width="512" xmlns="http://www.w3.org/2000/svg"><g id="Flat"><g id="Color_copy" data-name="Color copy"><g><g><circle cx="55" cy="30" fill="#57b7eb" r="6"/><path d="m60.439 27.48a6 6 0 1 0 -8.373 7.751c.917-1.093 1.738-2.176 2.426-3.149a12.75 12.75 0 0 1 5.947-4.602z" fill="#4891d3"/><path d="m58.911 25.022-7.911 1.978v-6l5.21-3.789a1.745 1.745 0 0 1 2.59 2.189l-.075.151a1.746 1.746 0 0 0 .663 2.278 1.745 1.745 0 0 1 -.477 3.193z" fill="#f9e109"/><path d="m55.005 18.087-4.005 2.913v6l7.911-1.978a1.744 1.744 0 0 0 1.189-2.361 4.68 4.68 0 0 1 -5.095-4.574z" fill="#fcbc04"/><rect fill="#84d2f4" height="38" rx="16" width="32" x="22" y="3"/><path d="m51 21.164v-4.328a4.836 4.836 0 0 0 -4.836-4.836 8.55 8.55 0 0 1 -5.564-2.059l-.044-.041a13.035 13.035 0 0 1 -4.174-6.823 16 16 0 0 0 -14.382 15.923v6a15.99 15.99 0 0 0 31.968.625 4.836 4.836 0 0 1 -2.968-4.461z" fill="#57b7eb"/><path d="m24 39h28a8 8 0 0 1 8 8v14a0 0 0 0 1 0 0h-44a0 0 0 0 1 0 0v-14a8 8 0 0 1 8-8z" fill="#e9f1f2"/><path d="m56 54a4 4 0 0 0 -4-4h-4v-11h-3v9a2 2 0 0 1 -2 2h-5a7 7 0 0 1 -7-7v-4h-7a8 8 0 0 0 -8 8v14h44v-3a4 4 0 0 1 -4-4z" fill="#d0d8da"/><path d="m35 41a10.944 10.944 0 0 0 6.313-2h-12.626a10.944 10.944 0 0 0 6.313 2z" fill="#d0d8da"/><path d="m32 30h12a0 0 0 0 1 0 0v9a6 6 0 0 1 -6 6 6 6 0 0 1 -6-6v-9a0 0 0 0 1 0 0z" fill="#fcbc04"/><path d="m51 52.586v-13.586h-4v13l-9 2-9-2v-13h-4v13.586a3.415 3.415 0 0 1 -1 2.414 3.415 3.415 0 0 0 -1 2.414v3.586h30v-3.586a3.415 3.415 0 0 0 -1-2.414 3.415 3.415 0 0 1 -1-2.414z" fill="#57b7eb"/><path d="m36.529 40.882a11 11 0 0 0 7.471-4.576v-6.306h-12v9a5.994 5.994 0 0 0 10.482 3.979 10.948 10.948 0 0 1 -5.953-2.097z" fill="#e59730"/><path d="m38 38a11 11 0 0 1 -11-11v-11h1a10 10 0 0 0 8-4l1.791 1.023a22.587 22.587 0 0 0 11.209 2.977v11a11 11 0 0 1 -11 11z" fill="#f9e109"/><path d="m37.791 13.023-1.791-1.023a10 10 0 0 1 -8 4h-1v11a10.991 10.991 0 0 0 17.808 8.63 10.981 10.981 0 0 1 -13.808-10.63v-6.477a9.982 9.982 0 0 0 5-3.523l1.791 1.023a22.587 22.587 0 0 0 11.209 2.977v-3a22.587 22.587 0 0 1 -11.209-2.977z" fill="#fcbc04"/><path d="m45.491 58.584a36.61 36.61 0 0 1 -14.541-2.148 6 6 0 0 1 -3.95-5.636v-11.8h-2v13.586a3.415 3.415 0 0 1 -1 2.414 3.415 3.415 0 0 0 -1 2.414v3.586h30v-2.833z" fill="#4891d3"/><path d="m44 29a1 1 0 0 1 -.625-1.781l5-4a1 1 0 1 1 1.25 1.562l-5 4a1 1 0 0 1 -.625.219z" fill="#e9f1f2"/><path d="m32 29a1 1 0 0 1 -.625-.219l-5-4a1 1 0 0 1 1.25-1.562l5 4a1 1 0 0 1 -.625 1.781z" fill="#d0d8da"/><path d="m45 22a1 1 0 0 1 -.707-.293 1.831 1.831 0 0 0 -2.586 0 1 1 0 0 1 -1.414-1.414 3.834 3.834 0 0 1 5.414 0 1 1 0 0 1 -.707 1.707z" fill="#57b7eb"/><path d="m35 22a1 1 0 0 1 -.707-.293 1.831 1.831 0 0 0 -2.586 0 1 1 0 0 1 -1.414-1.414 3.834 3.834 0 0 1 5.414 0 1 1 0 0 1 -.707 1.707z" fill="#57b7eb"/><path d="m38 38a7 7 0 0 1 -7-7v-4a25.484 25.484 0 0 1 14 0v4a7 7 0 0 1 -7 7z" fill="#e9f1f2"/><path d="m41 36a7 7 0 0 1 -7-7v-2.652a25.469 25.469 0 0 0 -3 .652v4a6.993 6.993 0 0 0 12.244 4.626 6.972 6.972 0 0 1 -2.244.374z" fill="#d0d8da"/><g fill="#93999a"><path d="m41 31a1 1 0 0 1 -.316-.052 8.551 8.551 0 0 0 -5.367 0 1 1 0 1 1 -.632-1.9 10.518 10.518 0 0 1 6.631 0 1 1 0 0 1 -.316 1.952z"/><path d="m40 35a1 1 0 0 1 -.446-.1 3.482 3.482 0 0 0 -3.1 0 1 1 0 1 1 -.894-1.79 5.5 5.5 0 0 1 4.893 0 1 1 0 0 1 -.453 1.89z"/></g></g><g><path d="m7 32h4v29h-4z" fill="#f9e109"/><path d="m9 52v-13a2.99 2.99 0 0 1 2-2.816v-4.184h-4v29h4v-6.184a2.99 2.99 0 0 1 -2-2.816z" fill="#fcbc04"/><path d="m11 20h4a4 4 0 0 1 4 4v12a0 0 0 0 1 0 0 8 8 0 0 1 -8-8v-8a0 0 0 0 1 0 0z" fill="#d0d8da"/><path d="m15 28v-8h-4v8a8 8 0 0 0 8 8c-2.518-1.889-4-8-4-8z" fill="#93999a"/><path d="m9 20h6a0 0 0 0 1 0 0v8a6 6 0 0 1 -6 6 6 6 0 0 1 -6-6v-2a6 6 0 0 1 6-6z" fill="#e9f1f2"/><path d="m14 30a6 6 0 0 1 -6-6v-2a5.976 5.976 0 0 1 .334-1.961 6 6 0 0 0 -5.334 5.961v2a6 6 0 0 0 11.666 1.961 6.107 6.107 0 0 1 -.666.039z" fill="#d0d8da"/><path d="m11.35 27.43a9.292 9.292 0 0 0 -1.35 4.81v1.67a5.47 5.47 0 0 1 -1 .09 5.907 5.907 0 0 1 -1.64-.23.962.962 0 0 1 -.31-.45l-.86-2.58a8.3 8.3 0 0 1 .98-7.29 1 1 0 0 1 1.66 1.1 6.319 6.319 0 0 0 -.74 5.55l.09.27a11.249 11.249 0 0 1 1.46-3.98 1 1 0 0 1 1.71 1.04z" fill="#d0d8da"/><path d="m10.61 28.95a9.226 9.226 0 0 0 -.61 3.29v1.67a5.47 5.47 0 0 1 -1 .09 5.907 5.907 0 0 1 -1.64-.23.962.962 0 0 1 -.31-.45l-.86-2.58a8.3 8.3 0 0 1 .98-7.29 1 1 0 0 1 .83-.45v1a5.764 5.764 0 0 0 .24 1.67 6.311 6.311 0 0 0 -.15 4.43l.09.27a11.76 11.76 0 0 1 .9-2.94 5.976 5.976 0 0 0 1.53 1.52z" fill="#93999a"/></g></g></g></g></svg>