<svg width="1129" height="787" viewBox="0 0 1129 787" fill="none" xmlns="http://www.w3.org/2000/svg">
<g id="undraw_booking_33fn 1">
<g clip-path="url(#clip0)">
<g id="Vector" filter="url(#filter0_d)">
<path d="M655.7 124.47C583.39 121.96 514.52 98.61 448.75 73.07C382.98 47.53 317.84 19.23 247.25 5.70001C201.86 -3.00999 149.94 -4.23999 113.36 20.1C78.16 43.52 66.79 83.95 60.67 121.47C56.07 149.7 53.37 179.4 65.97 205.83C74.72 224.17 90.26 239.59 100.97 257.16C138.36 318.31 111.97 393.7 71.41 453.41C52.41 481.41 30.35 508.13 15.69 537.94C1.02999 567.75 -5.73001 601.91 7.15999 632.37C19.88 662.51 50.16 685.15 83.03 701.08C149.67 733.37 228.26 742.63 304.89 747.87C474.53 759.47 645.08 754.45 815.17 749.42C878.11 747.55 941.34 745.67 1003.26 735.93C1037.65 730.53 1073.15 721.93 1098.12 701.24C1129.81 674.95 1137.67 630.43 1116.43 597.46C1080.81 542.16 982.32 528.46 957.43 469.08C943.72 436.42 957.8 400.03 977.72 369.74C1020.44 304.74 1092.05 247.74 1095.82 173.45C1098.42 122.45 1063.99 71.33 1010.76 47.19C954.96 21.89 877.6 25.07 836.43 66.96C794.04 110.09 719.55 126.68 655.7 124.47Z" fill="url(#paint0_linear)"/>
<path d="M247.156 6.19105L247.25 5.70001L247.156 6.19107C307.04 17.6691 362.996 39.7841 418.795 61.8372C428.718 65.7589 438.635 69.6786 448.569 73.5361C514.345 99.0784 583.282 122.457 655.683 124.97C719.594 127.182 794.254 110.585 836.787 67.3105C857.266 46.4726 886.775 35.238 918.154 32.3767C949.531 29.5156 982.734 35.0321 1010.55 47.6454C1063.63 71.7163 1097.91 122.665 1095.32 173.425C1093.44 210.416 1074.67 243.138 1050.98 274.779C1041.58 287.321 1031.43 299.678 1021.25 312.061C1018.59 315.297 1015.93 318.535 1013.28 321.779C1000.5 337.425 987.997 353.192 977.302 369.465C957.365 399.782 943.156 436.368 956.969 469.273C969.492 499.151 1000.51 517.495 1032.66 535.238C1034.64 536.33 1036.63 537.421 1038.61 538.511C1052.77 546.291 1066.97 554.088 1079.78 562.834C1094.38 572.804 1107.16 583.984 1116.01 597.731C1137.1 630.472 1129.31 674.714 1097.8 700.855C1072.94 721.451 1037.57 730.037 1003.18 735.436L1003.26 735.93L1003.18 735.436C941.299 745.17 878.101 747.05 815.155 748.92C645.061 753.95 474.536 758.969 304.924 747.371C228.297 742.131 149.793 732.874 83.2481 700.63C50.4141 684.718 20.2693 662.147 7.62065 632.176L7.62046 632.175C-5.18984 601.904 1.51078 567.905 16.1387 538.161C26.4893 517.113 40.5231 497.627 54.586 478.101C60.4136 470.009 66.2462 461.91 71.8236 453.691C112.403 393.952 138.952 318.321 101.397 256.9C96.9078 249.535 91.5718 242.546 86.2587 235.587C85.2139 234.218 84.17 232.851 83.1336 231.482C76.8175 223.14 70.7725 214.735 66.4213 205.615C53.894 179.337 56.564 149.777 61.1635 121.55C67.2814 84.0434 78.6269 43.8099 113.637 20.5163L113.36 20.1L113.637 20.5163C150.043 -3.70814 201.79 -2.51429 247.156 6.19105Z" stroke="black"/>
</g>
<path id="Vector_2" d="M231.97 261.24V702.95C231.97 704.975 232.369 706.98 233.144 708.851C233.919 710.722 235.055 712.422 236.486 713.854C237.918 715.285 239.618 716.421 241.489 717.196C243.36 717.971 245.365 718.37 247.39 718.37H881.26C885.35 718.37 889.272 716.745 892.164 713.854C895.055 710.962 896.68 707.04 896.68 702.95V261.24H231.97Z" fill="white"/>
<path id="Vector_3" opacity="0.1" d="M434.82 300.78H293.22C288.443 300.78 284.57 304.653 284.57 309.43V385.4C284.57 390.177 288.443 394.05 293.22 394.05H434.82C439.597 394.05 443.47 390.177 443.47 385.4V309.43C443.47 304.653 439.597 300.78 434.82 300.78Z" fill="black"/>
<path id="Vector_4" opacity="0.1" d="M635.13 300.78H493.53C488.753 300.78 484.88 304.653 484.88 309.43V385.4C484.88 390.177 488.753 394.05 493.53 394.05H635.13C639.907 394.05 643.78 390.177 643.78 385.4V309.43C643.78 304.653 639.907 300.78 635.13 300.78Z" fill="black"/>
<path id="Vector_5" d="M432.58 302.09H295.45C290.673 302.09 286.8 305.963 286.8 310.74V384.08C286.8 388.857 290.673 392.73 295.45 392.73H432.58C437.357 392.73 441.23 388.857 441.23 384.08V310.74C441.23 305.963 437.357 302.09 432.58 302.09Z" fill="#6C63FF"/>
<path id="Vector_6" opacity="0.1" d="M696.07 392.73H833.2C837.977 392.73 841.85 388.857 841.85 384.08V310.74C841.85 305.963 837.977 302.09 833.2 302.09H696.07C691.293 302.09 687.42 305.963 687.42 310.74V384.08C687.42 388.857 691.293 392.73 696.07 392.73Z" fill="#444053"/>
<path id="Vector_7" d="M495.76 392.73H632.89C637.667 392.73 641.54 388.857 641.54 384.08V310.74C641.54 305.963 637.667 302.09 632.89 302.09H495.76C490.983 302.09 487.11 305.963 487.11 310.74V384.08C487.11 388.857 490.983 392.73 495.76 392.73Z" fill="#6C63FF"/>
<path id="Vector_8" opacity="0.1" d="M432.58 433.02H295.45C290.673 433.02 286.8 436.893 286.8 441.67V515.01C286.8 519.787 290.673 523.66 295.45 523.66H432.58C437.357 523.66 441.23 519.787 441.23 515.01V441.67C441.23 436.893 437.357 433.02 432.58 433.02Z" fill="#444053"/>
<path id="Vector_9" opacity="0.1" d="M696.07 523.66H833.2C837.977 523.66 841.85 519.787 841.85 515.01V441.67C841.85 436.893 837.977 433.02 833.2 433.02H696.07C691.293 433.02 687.42 436.893 687.42 441.67V515.01C687.42 519.787 691.293 523.66 696.07 523.66Z" fill="#444053"/>
<path id="Vector_10" opacity="0.1" d="M495.76 523.66H632.89C637.667 523.66 641.54 519.787 641.54 515.01V441.67C641.54 436.893 637.667 433.02 632.89 433.02H495.76C490.983 433.02 487.11 436.893 487.11 441.67V515.01C487.11 519.787 490.983 523.66 495.76 523.66Z" fill="#444053"/>
<path id="Vector_11" opacity="0.1" d="M432.58 563.95H295.45C290.673 563.95 286.8 567.823 286.8 572.6V645.94C286.8 650.717 290.673 654.59 295.45 654.59H432.58C437.357 654.59 441.23 650.717 441.23 645.94V572.6C441.23 567.823 437.357 563.95 432.58 563.95Z" fill="#444053"/>
<path id="Vector_12" opacity="0.1" d="M696.07 654.6H833.2C837.977 654.6 841.85 650.727 841.85 645.95V572.61C841.85 567.833 837.977 563.96 833.2 563.96H696.07C691.293 563.96 687.42 567.833 687.42 572.61V645.95C687.42 650.727 691.293 654.6 696.07 654.6Z" fill="#444053"/>
<path id="Vector_13" opacity="0.1" d="M495.76 654.6H632.89C637.667 654.6 641.54 650.727 641.54 645.95V572.61C641.54 567.833 637.667 563.96 632.89 563.96H495.76C490.983 563.96 487.11 567.833 487.11 572.61V645.95C487.11 650.727 490.983 654.6 495.76 654.6Z" fill="#444053"/>
<path id="Vector_14" d="M231.97 183.23V263.48H896.68V183.23C896.681 181.204 896.283 179.198 895.509 177.326C894.735 175.454 893.599 173.753 892.167 172.32C890.735 170.887 889.035 169.75 887.163 168.975C885.292 168.199 883.286 167.8 881.26 167.8H247.39C245.364 167.8 243.358 168.199 241.487 168.975C239.615 169.75 237.915 170.887 236.483 172.32C235.051 173.753 233.915 175.454 233.141 177.326C232.367 179.198 231.969 181.204 231.97 183.23ZM396.47 206.97C394.035 206.97 391.655 206.248 389.631 204.895C387.607 203.543 386.029 201.62 385.097 199.371C384.165 197.121 383.922 194.646 384.397 192.258C384.872 189.871 386.044 187.677 387.766 185.956C389.487 184.234 391.681 183.062 394.068 182.587C396.456 182.112 398.931 182.355 401.181 183.287C403.43 184.219 405.353 185.797 406.705 187.821C408.058 189.845 408.78 192.225 408.78 194.66C408.78 197.925 407.483 201.056 405.174 203.364C402.866 205.673 399.735 206.97 396.47 206.97ZM732.18 206.97C729.745 206.97 727.365 206.248 725.341 204.895C723.317 203.543 721.739 201.62 720.807 199.371C719.875 197.121 719.632 194.646 720.107 192.258C720.582 189.871 721.754 187.677 723.475 185.956C725.197 184.234 727.391 183.062 729.778 182.587C732.166 182.112 734.641 182.355 736.891 183.287C739.14 184.219 741.063 185.797 742.415 187.821C743.768 189.845 744.49 192.225 744.49 194.66C744.49 196.278 744.171 197.881 743.551 199.375C742.931 200.87 742.023 202.228 740.877 203.372C739.732 204.515 738.373 205.421 736.877 206.039C735.381 206.656 733.778 206.973 732.16 206.97H732.18Z" fill="#6C63FF"/>
<path id="Vector_15" opacity="0.1" d="M396.47 180.11C393.592 180.108 390.778 180.96 388.384 182.557C385.99 184.155 384.123 186.427 383.02 189.085C381.918 191.744 381.628 194.669 382.188 197.492C382.749 200.316 384.134 202.909 386.168 204.945C388.203 206.981 390.795 208.367 393.618 208.93C396.44 209.492 399.366 209.204 402.026 208.103C404.685 207.002 406.958 205.138 408.557 202.745C410.156 200.352 411.01 197.538 411.01 194.66C411.011 192.75 410.636 190.858 409.906 189.093C409.176 187.327 408.105 185.723 406.755 184.372C405.405 183.021 403.801 181.949 402.037 181.218C400.272 180.486 398.38 180.11 396.47 180.11V180.11ZM396.47 206.97C394.035 206.97 391.655 206.248 389.631 204.895C387.607 203.543 386.029 201.62 385.097 199.371C384.165 197.121 383.922 194.646 384.397 192.258C384.872 189.871 386.044 187.677 387.766 185.955C389.487 184.234 391.681 183.062 394.068 182.587C396.456 182.112 398.932 182.355 401.181 183.287C403.43 184.219 405.353 185.797 406.705 187.821C408.058 189.845 408.78 192.225 408.78 194.66C408.78 197.925 407.483 201.056 405.175 203.364C402.866 205.673 399.735 206.97 396.47 206.97V206.97Z" fill="white"/>
<path id="Vector_16" opacity="0.1" d="M732.16 180.11C729.282 180.11 726.469 180.963 724.076 182.562C721.684 184.161 719.819 186.433 718.718 189.092C717.616 191.751 717.328 194.676 717.889 197.499C718.451 200.321 719.837 202.914 721.872 204.948C723.906 206.983 726.499 208.369 729.321 208.93C732.144 209.492 735.069 209.204 737.728 208.102C740.387 207.001 742.659 205.136 744.258 202.744C745.857 200.351 746.71 197.538 746.71 194.66C746.71 190.801 745.177 187.1 742.448 184.372C739.72 181.643 736.019 180.11 732.16 180.11ZM732.16 206.97C729.725 206.97 727.345 206.248 725.321 204.895C723.297 203.543 721.719 201.62 720.787 199.371C719.855 197.121 719.611 194.646 720.086 192.258C720.561 189.871 721.734 187.677 723.455 185.955C725.177 184.234 727.37 183.062 729.758 182.587C732.146 182.112 734.621 182.355 736.871 183.287C739.12 184.219 741.043 185.797 742.395 187.821C743.748 189.845 744.47 192.225 744.47 194.66C744.47 197.925 743.173 201.056 740.864 203.364C738.556 205.673 735.425 206.97 732.16 206.97Z" fill="black"/>
<path id="Vector_17" d="M925.65 740.37C923.373 738.656 920.878 737.253 918.23 736.2C918.029 736.096 917.807 736.038 917.58 736.03C912.101 732.097 906.981 727.687 902.28 722.85C903.28 722.05 904.2 721.27 905.18 720.5C899.18 717.64 895.85 711.09 892.61 705.18C884.043 689.469 872.755 675.404 859.27 663.64C858.94 662.37 857.01 662.64 855.98 661.82C855.644 661.497 855.4 661.091 855.272 660.643C855.143 660.195 855.136 659.722 855.25 659.27C855.41 658.35 855.83 657.5 856.06 656.6C856.61 654.49 856.13 652.27 855.89 650.1C855.65 647.93 855.75 645.51 857.19 643.89C857.65 643.36 858.24 642.95 858.69 642.41C859.163 641.774 859.496 641.045 859.669 640.272C859.841 639.498 859.848 638.697 859.69 637.92C859.581 636.363 859.244 634.83 858.69 633.37C863.59 620.037 868.487 606.68 873.38 593.3C876.81 583.96 880.27 574.42 880.62 564.46C880.9 556.46 878.84 548.15 874 542.04C874.88 541.83 875.76 541.61 876.63 541.36C870.91 533.78 870.29 523.74 870.14 514.19C870.06 509.43 869.897 504.667 869.65 499.9C871.31 500.63 872.99 501.28 874.71 501.84L876.31 502.33C878.908 503.091 881.559 503.659 884.24 504.03C885.42 504.2 886.62 504.33 887.81 504.41C886.09 500.103 884.373 495.79 882.66 491.47C881.769 489.558 881.227 487.503 881.06 485.4V485.4V485C881.06 484.76 881.06 484.52 881.11 484.28C881.178 483.707 881.309 483.144 881.5 482.6C881.589 482.331 881.692 482.067 881.81 481.81C882.166 481.022 882.595 480.269 883.09 479.56C883.45 479.01 883.85 478.48 884.25 477.94C885.74 476.201 886.951 474.241 887.84 472.13C888.192 471.061 888.377 469.945 888.39 468.82C888.409 467.679 888.309 466.54 888.09 465.42C887.95 464.68 887.77 463.93 887.57 463.21C887.44 462.76 887.3 462.31 887.16 461.87L887.04 461.51C886.93 461.17 886.82 460.84 886.7 460.51L886.58 460.17C886.45 459.81 886.32 459.46 886.18 459.1L886.1 458.89C884.19 453.98 881.65 449.3 880.1 444.25C879.693 442.906 879.359 441.541 879.1 440.16C879.03 439.81 878.98 439.45 878.92 439.1C878.86 438.75 878.83 438.5 878.79 438.2C878.75 437.9 878.7 437.5 878.66 437.15L878.57 436.15C878.57 435.83 878.52 435.51 878.5 435.15C878.5 434.54 878.44 433.93 878.43 433.32C878.43 433.1 878.43 432.89 878.43 432.67C878.43 432.21 878.43 431.74 878.43 431.28C878.43 431.03 878.43 430.78 878.43 430.54C878.43 430.08 878.5 429.62 878.54 429.17C878.54 428.95 878.54 428.73 878.61 428.52C878.677 427.853 878.767 427.187 878.88 426.52C878.98 425.93 879.09 425.33 879.21 424.73C879.572 423.088 879.76 421.412 879.77 419.73C879.77 419.41 879.77 419.08 879.7 418.73C879.63 418.38 879.62 418.19 879.57 417.93C879.565 417.85 879.565 417.77 879.57 417.69C879.57 417.51 879.48 417.33 879.44 417.15C879.4 416.97 879.39 416.98 879.36 416.9C879.33 416.82 879.25 416.55 879.19 416.38C879.13 416.21 879.14 416.23 879.11 416.15C879.08 416.07 878.97 415.79 878.89 415.62L878.82 415.44C878.72 415.22 878.61 415.01 878.5 414.8C878.112 414.07 877.664 413.375 877.16 412.72V412.72C873.87 408.4 868.4 405.11 865.39 400.35C863.633 397.265 862.488 393.869 862.02 390.35C861.87 389.55 861.74 388.75 861.6 387.96C861.46 387.17 861.34 386.39 861.2 385.61C861.11 385.13 861.02 384.61 860.92 384.17L860.86 383.86C860.78 383.48 860.7 383.09 860.61 382.71L860.55 382.44C860.46 382.04 860.37 381.64 860.27 381.24L860.21 381.03C860.11 380.61 860 380.19 859.89 379.77C859.885 379.72 859.885 379.67 859.89 379.62C859.77 379.18 859.64 378.74 859.51 378.3V378.21C859.37 377.75 859.23 377.3 859.08 376.85C858.93 376.39 858.77 375.92 858.6 375.46C858.42 374.99 858.25 374.52 858.06 374.06C856.802 370.838 855.099 367.809 853 365.06C848.42 359.18 841.34 354.96 834 355.24C830.06 355.39 826.28 356.77 822.57 358.14L812.94 361.69L815.63 360.45C812.83 360.7 809.97 360.96 807.44 362.2C804.91 363.44 802.77 365.87 802.69 368.71C802.64 370.36 803.29 372 803.08 373.64C802.73 376.35 800.24 378.19 798.95 380.59C798.194 382.036 797.848 383.661 797.95 385.29V385.37C797.95 385.56 797.95 385.74 797.95 385.93C797.945 385.983 797.945 386.037 797.95 386.09V386.41C793.95 384.67 789.95 382.86 785.95 380.92C779.34 377.67 772.65 373.85 768.53 367.69C767.21 365.69 766.19 363.53 764.88 361.55C763.377 359.419 761.705 357.413 759.88 355.55L747.61 342.27C746.67 344.04 747.88 346.13 748.83 347.89C749.839 349.736 750.602 351.706 751.1 353.75C751.342 354.416 751.321 355.149 751.04 355.8C750.593 356.336 750.014 356.747 749.36 356.99C748.239 357.695 747.383 358.752 746.926 359.994C746.468 361.237 746.434 362.596 746.83 363.86C747.265 365.104 748.017 366.214 749.011 367.08C750.005 367.947 751.208 368.539 752.5 368.8C753.366 368.899 754.216 369.107 755.03 369.42C756.51 370.15 757.21 371.85 758.27 373.12C760.2 375.44 763.27 376.31 766.2 377.07C770.74 382.31 775.46 387.33 780 392.57C786.87 400.5 793.9 408.57 802.86 413.93C803.79 414.49 804.74 415.01 805.7 415.49C805.7 415.65 805.7 415.81 805.65 415.97C805.399 417.152 805.551 418.384 806.08 419.47C806.88 420.74 808.53 421.12 810 421.38L816.78 422.59C816.72 423.469 816.61 424.344 816.45 425.21C816.36 425.74 816.25 426.26 816.15 426.79L816.03 427.47C816.03 427.47 816.03 427.54 816.03 427.57C816.03 427.6 816.03 427.93 815.96 428.12C815.89 428.31 815.96 428.25 815.96 428.31V428.79V428.99C815.96 429.2 815.96 429.42 815.96 429.64C816.19 432.3 817.96 434.5 819.73 436.53L820.68 437.68C819.172 439.578 818.116 441.794 817.59 444.16C817.288 445.644 817.141 447.156 817.15 448.67C816.243 449.535 815.557 450.605 815.15 451.79C814.676 453.429 814.5 455.139 814.63 456.84V456.96C814.63 457.59 814.63 458.21 814.63 458.84C814.514 461.229 814.909 463.616 815.79 465.84C815.88 466.02 815.98 466.18 816.07 466.35C814.57 469.29 812.07 471.58 810.28 474.35C808.47 477.425 807.651 480.984 807.935 484.541C808.22 488.098 809.594 491.482 811.87 494.23C813.24 495.81 815 497.33 815.16 499.43C815.136 500.382 815.043 501.331 814.88 502.27C814.72 504.53 815.76 506.67 816.32 508.86C816.79 510.68 816.81 512.86 815.77 514.32C814.718 515.854 814.234 517.707 814.4 519.56C814.91 522.39 813.74 525.22 813.54 528.09C813.45 529.32 813.54 530.57 813.43 531.8C813.286 532.979 813.042 534.143 812.7 535.28C812.7 535.4 812.64 535.53 812.6 535.66C810.13 536.75 807.68 537.88 805.32 539.19C804.045 539.758 802.992 540.727 802.32 541.95C801.921 543.178 801.866 544.492 802.16 545.75L804.29 560.57L803.92 560.41C804.087 562.837 804.26 565.273 804.44 567.72C804.57 569.57 804.74 571.53 805.84 573.01C806.4 573.607 806.905 574.253 807.35 574.94C808.19 576.64 807.19 578.62 806.45 580.36C805.71 582.1 805.45 584.57 807.08 585.51C807.93 586.101 808.846 586.591 809.81 586.97C807.81 595.31 809.65 604.05 811.51 612.42C812.93 618.82 814.353 625.213 815.78 631.6C816.338 634.313 816.653 637.071 816.72 639.84C816.72 640.24 816.72 640.64 816.72 641.04C816.921 644.848 817.592 648.617 818.72 652.26C820.94 659.74 818.81 668.72 819.51 676.87C819.975 680.79 820.758 684.666 821.85 688.46C826.68 707.62 830.99 726.4 832.65 746.1C834.426 748.361 836.835 750.043 839.57 750.93C839.37 753.35 839.64 756.12 839.57 757.53C839.567 758.698 839.385 759.858 839.03 760.97C838.18 763.19 836.03 764.64 833.8 765.42C833.1 765.66 832.39 765.85 831.67 766.02L832.47 765.34C827.898 764.347 823.119 765.187 819.16 767.68C818.538 767.997 817.986 768.434 817.534 768.966C817.083 769.498 816.741 770.115 816.53 770.78C816.365 772.05 816.695 773.335 817.45 774.37C819.652 777.593 822.932 779.923 826.7 780.94C830.423 781.92 834.25 782.454 838.1 782.53L845.16 782.94C844.92 783.343 844.835 783.82 844.919 784.281C845.004 784.743 845.253 785.158 845.62 785.45C846.377 786.003 847.275 786.329 848.21 786.39C851.095 786.818 854.024 786.862 856.92 786.52C857.646 786.499 858.347 786.247 858.92 785.8C859.053 785.679 859.16 785.532 859.232 785.367C859.305 785.203 859.343 785.025 859.343 784.845C859.343 784.665 859.305 784.487 859.232 784.323C859.16 784.158 859.053 784.011 858.92 783.89C859.344 783.876 859.753 783.736 860.096 783.486C860.438 783.236 860.698 782.889 860.84 782.49C861.117 781.677 861.206 780.812 861.1 779.96C860.91 776.67 860.62 771.89 858.91 768.96C858.614 768.427 858.152 768.005 857.594 767.76C857.036 767.514 856.413 767.458 855.82 767.6C854.714 761.745 854.045 755.815 853.82 749.86C855.582 749.199 857.299 748.424 858.96 747.54C854.05 739.61 853.96 729.54 855.46 720.32C856.055 717.409 856.492 714.468 856.77 711.51C857.1 705.61 856.21 698.93 852.94 694.05C858.901 697.841 864.176 702.615 868.54 708.17C875.45 717.17 879.66 728.07 888.13 735.57C889.243 734.483 890.37 733.403 891.51 732.33C893.297 735.357 894.987 738.447 896.58 741.6C897.83 743.919 898.816 746.371 899.52 748.91C900.3 752.794 900.391 756.785 899.79 760.7C899.557 762.78 899.273 764.85 898.94 766.91C898.806 767.791 898.602 768.661 898.33 769.51C898.326 769.239 898.261 768.972 898.14 768.73C897.61 767.8 896.14 768.22 895.34 768.86C893.915 769.929 892.738 771.294 891.89 772.86C891.423 773.625 891.207 774.516 891.27 775.41C891.399 775.948 891.646 776.451 891.991 776.883C892.337 777.315 892.774 777.666 893.27 777.91C896.98 780.08 901.64 778.51 905.62 776.91C906.72 776.514 907.767 775.987 908.74 775.34C910.74 773.9 911.83 771.53 913.82 770.13C914.882 769.547 915.908 768.899 916.89 768.19C918.74 766.5 918.89 763.65 920.24 761.51C922.48 757.82 927.49 756.87 929.45 752.96C931.72 748.64 929.07 743.19 925.65 740.37Z" fill="url(#paint1_linear)"/>
<path id="Vector_18" d="M839.44 757.97C839.434 759.125 839.248 760.272 838.89 761.37C838.05 763.56 835.89 764.99 833.67 765.76C831.45 766.53 829.09 766.76 826.83 767.43C825.837 767.656 824.918 768.131 824.16 768.81C822.16 770.81 823.36 774.41 825.7 775.9C828.04 777.39 831.02 777.34 833.8 777.15C839.699 776.807 845.559 775.974 851.32 774.66C853.4 774.17 855.83 773.21 856.16 771.1C856.222 770.429 856.168 769.752 856 769.1C854.581 761.942 853.828 754.667 853.75 747.37C853.75 746.89 842.15 746.58 841.07 747.28C838.65 748.87 839.57 755.51 839.44 757.97Z" fill="#FFB9B9"/>
<path id="Vector_19" d="M891.16 732.5C893.08 735.68 894.883 738.923 896.57 742.23C897.819 744.514 898.806 746.933 899.51 749.44C900.285 753.27 900.376 757.208 899.78 761.07C899.547 763.117 899.26 765.16 898.92 767.2C898.59 769.2 898.06 771.47 896.35 772.62C897.112 773.072 897.966 773.347 898.849 773.425C899.731 773.503 900.62 773.381 901.45 773.07C903.1 772.431 904.621 771.5 905.94 770.32C914.51 763.25 920.94 752.98 921.26 741.87C921.35 741.002 921.187 740.127 920.79 739.35C920.386 738.806 919.876 738.35 919.29 738.01C912.895 733.654 906.955 728.666 901.56 723.12C901.243 722.693 900.78 722.398 900.26 722.29C899.85 722.292 899.449 722.406 899.1 722.62C895.81 724.27 890.31 726.62 888.94 730.37C889.876 730.842 890.65 731.584 891.16 732.5V732.5Z" fill="#FFB9B9"/>
<path id="Vector_20" d="M851.16 769.58C843.96 772.58 836.16 773.66 828.37 774.69C827.37 774.81 826.3 774.89 825.64 774.19C825.378 773.863 825.221 773.465 825.188 773.048C825.156 772.63 825.251 772.213 825.46 771.85C825.884 771.129 826.453 770.502 827.13 770.01L832.3 765.68C827.792 764.724 823.089 765.532 819.16 767.94C817.925 768.555 816.983 769.634 816.54 770.94C816.373 772.198 816.703 773.471 817.46 774.49C819.673 777.679 822.948 779.976 826.7 780.97C830.423 781.935 834.245 782.462 838.09 782.54L845.09 782.94C844.849 783.339 844.764 783.812 844.85 784.27C844.937 784.728 845.19 785.137 845.56 785.42C846.32 785.975 847.221 786.304 848.16 786.37C851.042 786.79 853.967 786.83 856.86 786.49C857.586 786.478 858.289 786.228 858.86 785.78C858.992 785.662 859.098 785.517 859.171 785.355C859.243 785.193 859.281 785.017 859.281 784.84C859.281 784.662 859.243 784.487 859.171 784.325C859.098 784.163 858.992 784.018 858.86 783.9C859.282 783.887 859.691 783.748 860.034 783.5C860.376 783.252 860.636 782.907 860.78 782.51C861.047 781.709 861.136 780.859 861.04 780.02C860.85 776.78 860.56 772.02 858.85 769.19C857.14 766.36 853.58 768.58 851.16 769.58Z" fill="#3F3D56"/>
<path id="Vector_21" d="M925.47 740.99C923.189 739.298 920.694 737.916 918.05 736.88C917.944 736.799 917.822 736.743 917.691 736.716C917.561 736.689 917.426 736.692 917.297 736.725C917.168 736.758 917.049 736.819 916.947 736.905C916.845 736.991 916.764 737.098 916.71 737.22C911.987 743.629 908.299 750.738 905.78 758.29C904.35 762.59 903.22 767.17 900.32 770.65C899.94 771.11 899.32 771.58 898.8 771.31C898.05 770.93 898.51 769.72 898.09 768.99C897.57 768.07 896.15 768.49 895.3 769.12C893.871 770.182 892.696 771.548 891.86 773.12C891.381 773.865 891.163 774.748 891.24 775.63C891.365 776.158 891.604 776.652 891.941 777.077C892.278 777.502 892.704 777.848 893.19 778.09C896.9 780.24 901.56 778.69 905.53 777.09C906.626 776.703 907.671 776.183 908.64 775.54C910.64 774.13 911.73 771.78 913.72 770.41C914.782 769.834 915.807 769.193 916.79 768.49C918.63 766.82 918.79 764.01 920.13 761.89C922.37 758.26 927.38 757.32 929.34 753.46C931.53 749.15 928.89 743.77 925.47 740.99Z" fill="#3F3D56"/>
<path id="Vector_22" d="M869.66 541.24C877.52 547.14 880.82 557.63 880.47 567.45C880.12 577.27 876.67 586.69 873.25 595.9C868.35 609.08 863.457 622.257 858.57 635.43C859.115 636.875 859.451 638.39 859.57 639.93C859.725 640.696 859.716 641.485 859.544 642.247C859.371 643.009 859.039 643.726 858.57 644.35C858.11 644.88 857.57 645.29 857.07 645.81C855.63 647.41 855.54 649.81 855.77 651.94C856 654.07 856.49 656.27 855.94 658.35C855.71 659.24 855.29 660.08 855.13 660.98C855.018 661.427 855.027 661.896 855.155 662.338C855.284 662.781 855.527 663.182 855.86 663.5C856.86 664.3 858.86 664.04 859.15 665.3C872.596 676.881 883.872 690.765 892.45 706.3C895.69 712.13 898.96 718.59 905.01 721.41C899.115 726.08 893.464 731.05 888.08 736.3C879.63 728.9 875.42 718.13 868.52 709.3C864.152 703.808 858.884 699.098 852.94 695.37C856.21 700.18 857.1 706.78 856.77 712.59C856.493 715.508 856.056 718.41 855.46 721.28C853.91 730.38 854.05 740.28 858.96 748.14C853.72 750.86 847.7 752.88 841.85 752.07C838.179 751.548 834.846 749.645 832.53 746.75C830.87 727.31 826.53 708.75 821.74 689.88C820.642 686.115 819.862 682.265 819.41 678.37C818.71 670.37 820.84 661.47 818.61 654.09C817.486 650.501 816.815 646.785 816.61 643.03C816.61 642.63 816.61 642.24 816.61 641.84C816.542 639.111 816.227 636.393 815.67 633.72L811.41 614.8C809.55 606.53 807.69 597.91 809.7 589.68C808.741 589.31 807.829 588.83 806.98 588.25C805.35 587.32 805.61 584.89 806.35 583.17C807.09 581.45 808.08 579.5 807.25 577.82C806.807 577.138 806.302 576.498 805.74 575.91C804.64 574.45 804.47 572.52 804.34 570.7L803.82 563.48C806.839 564.677 809.353 566.877 810.94 569.71C807 563.61 808.94 554.91 811.85 548.25C812.391 546.21 813.577 544.4 815.232 543.089C816.886 541.779 818.92 541.039 821.03 540.98C837.06 538.24 856.64 531.45 869.66 541.24Z" fill="#3F3D56"/>
<path id="Vector_23" opacity="0.1" d="M862.35 582.3C862.35 582.3 854.47 587.56 854.47 591.5C854.47 595.44 852.47 630.9 852.47 630.9V655.9C852.47 655.9 853.78 669.04 852.47 672.32C851.16 675.6 852.47 690.71 852.47 692.68C852.47 694.65 854.47 672.32 854.47 672.32V648.64L856.47 594.78L862.35 582.3Z" fill="black"/>
<path id="Vector_24" d="M818.4 400.16L813.81 398.37C804.43 394.61 795.04 390.84 785.96 386.43C779.36 383.22 772.67 379.43 768.56 373.38C767.24 371.38 766.22 369.28 764.91 367.31C763.405 365.203 761.733 363.22 759.91 361.38L747.65 348.28C746.71 350.03 747.91 352.09 748.87 353.82C749.875 355.643 750.638 357.59 751.14 359.61C751.376 360.261 751.351 360.977 751.07 361.61C750.628 362.145 750.052 362.553 749.4 362.79C748.283 363.475 747.428 364.513 746.97 365.739C746.511 366.966 746.476 368.311 746.87 369.56C747.309 370.795 748.061 371.894 749.054 372.749C750.046 373.605 751.244 374.188 752.53 374.44C753.395 374.54 754.244 374.745 755.06 375.05C756.54 375.78 757.24 377.45 758.3 378.7C760.23 380.99 763.3 381.86 766.22 382.6C770.76 387.77 775.47 392.72 780.01 397.89C786.87 405.71 793.89 413.67 802.85 418.97C806.032 420.915 809.517 422.314 813.16 423.11C814.365 415.346 816.116 407.677 818.4 400.16V400.16Z" fill="#FFB9B9"/>
<path id="Vector_25" opacity="0.15" d="M818.4 400.16L813.81 398.37C804.43 394.61 795.04 390.84 785.96 386.43C779.36 383.22 772.67 379.43 768.56 373.38C767.24 371.38 766.22 369.28 764.91 367.31C763.405 365.203 761.733 363.22 759.91 361.38L747.65 348.28C746.71 350.03 747.91 352.09 748.87 353.82C749.875 355.643 750.638 357.59 751.14 359.61C751.376 360.261 751.351 360.977 751.07 361.61C750.628 362.145 750.052 362.553 749.4 362.79C748.283 363.475 747.428 364.513 746.97 365.739C746.511 366.966 746.476 368.311 746.87 369.56C747.309 370.795 748.061 371.894 749.054 372.749C750.046 373.605 751.244 374.188 752.53 374.44C753.395 374.54 754.244 374.745 755.06 375.05C756.54 375.78 757.24 377.45 758.3 378.7C760.23 380.99 763.3 381.86 766.22 382.6C770.76 387.77 775.47 392.72 780.01 397.89C786.87 405.71 793.89 413.67 802.85 418.97C806.032 420.915 809.517 422.314 813.16 423.11C814.365 415.346 816.116 407.677 818.4 400.16Z" fill="#FFB9B9"/>
<path id="Vector_26" d="M810 426.27C808.53 426.01 806.88 425.65 806.08 424.39C805.55 423.322 805.399 422.106 805.65 420.94C806.445 413.403 808.124 405.985 810.65 398.84C812.88 402.97 817.27 405.38 821.43 407.55C825.144 409.615 829.016 411.38 833.01 412.83C832.01 412.51 829.56 427.89 828.18 428.83C826.44 430.05 822.24 428.4 820.31 428.07L810 426.27Z" fill="#FF2929"/>
<path id="Vector_27" d="M820.65 421.73C832.259 421.73 841.67 412.319 841.67 400.71C841.67 389.101 832.259 379.69 820.65 379.69C809.041 379.69 799.63 389.101 799.63 400.71C799.63 412.319 809.041 421.73 820.65 421.73Z" fill="#FDCFD3"/>
<path id="Vector_28" d="M816.38 418.11C816.38 418.11 830.17 429.93 824.26 437.81C818.35 445.69 815.06 450.95 822.94 451.61C830.82 452.27 857.09 438.47 857.09 438.47C857.09 438.47 832.79 418.77 836.73 406.95C840.67 395.13 816.38 418.11 816.38 418.11Z" fill="#FBBEBE"/>
<path id="Vector_29" d="M829.61 436.61C826.671 437.316 823.986 438.825 821.854 440.969C819.723 443.113 818.229 445.807 817.54 448.75C815.99 455.83 819.28 463.75 816.18 470.27C814.72 473.37 812.01 475.69 810.18 478.6C808.378 481.629 807.562 485.144 807.845 488.657C808.128 492.17 809.496 495.508 811.76 498.21C813.13 499.77 814.89 501.28 815.05 503.34C815.027 504.279 814.933 505.215 814.77 506.14C814.61 508.37 815.65 510.49 816.21 512.65C816.68 514.44 816.7 516.59 815.66 518.03C814.611 519.539 814.129 521.37 814.3 523.2C814.8 526 813.63 528.79 813.43 531.62C813.34 532.84 813.43 534.06 813.32 535.28C813.174 536.441 812.934 537.588 812.6 538.71L810.84 545.2C820.38 549.28 830.52 550.75 840.84 550.56C850.08 550.38 859.19 548.47 868.23 546.56C870.98 545.98 873.73 545.4 876.44 544.65C870.72 537.17 870.11 527.26 869.95 517.85C869.701 502.161 868.529 486.501 866.44 470.95C869.21 465.72 870.44 459.89 871.58 454.08C872.092 451.74 872.307 449.344 872.22 446.95C871.94 441.95 869.64 437.2 867.39 432.67C865.33 428.53 863.1 424.17 858.51 422.38C857.402 421.913 856.193 421.737 854.998 421.868C853.802 421.999 852.66 422.434 851.68 423.13C848.21 425.75 849.24 430.27 848.35 434.13C847.18 439.13 842.57 442.72 837.66 444.13C833.996 445.09 830.199 445.445 826.42 445.18C826.05 445.159 825.693 445.035 825.389 444.823C825.085 444.611 824.846 444.318 824.699 443.978C824.551 443.638 824.501 443.263 824.555 442.896C824.608 442.529 824.762 442.184 825 441.9C826.61 440.12 828.23 438.31 829.61 436.61Z" fill="#FF2929"/>
<path id="Vector_30" d="M845.89 517.86C838.11 524.22 830.24 530.64 821.26 535.14C815.99 537.78 810.39 539.73 805.26 542.57C803.992 543.127 802.939 544.082 802.26 545.29C801.852 546.499 801.796 547.8 802.1 549.04L804.38 564.76C805.01 569.02 809.1 571.76 812.38 574.48C812.2 573.05 811.91 571.94 812.59 570.67C812.826 570.273 813.083 569.889 813.36 569.52C814.76 567.4 814.81 564.65 814.47 562.13C814.13 559.61 813.47 557.13 813.6 554.55C813.572 554.123 813.655 553.696 813.84 553.31C814.026 552.925 814.309 552.594 814.66 552.35C825.83 546.98 837.86 542.86 849.15 537.76C852.137 536.553 854.952 534.955 857.52 533.01C860.101 531.03 861.837 528.147 862.38 524.94C862.432 524.732 862.441 524.516 862.406 524.304C862.372 524.093 862.295 523.891 862.18 523.71C861.953 523.462 861.657 523.287 861.33 523.21C856.27 521.37 850.93 519.68 845.89 517.86Z" fill="#FFB8B8"/>
<path id="Vector_31" opacity="0.1" d="M824.28 451.9C820.42 452.55 816.36 454.55 815.05 458.25C814.579 459.872 814.403 461.566 814.53 463.25C814.41 465.618 814.809 467.983 815.7 470.18C816.358 471.393 817.142 472.532 818.04 473.58C827.28 485.42 831.92 500.29 840.92 512.32C841.72 513.38 843.18 514.76 842.73 516.01C842.566 516.334 842.423 516.668 842.3 517.01C842.259 517.333 842.298 517.662 842.413 517.967C842.528 518.272 842.716 518.544 842.96 518.76C843.44 519.2 843.813 519.744 844.05 520.35C844.22 520.98 843.8 521.8 843.15 521.75C844.23 525.09 847.54 527.04 850.68 528.62C855.9 531.25 861.68 533.32 867.49 532.75C868.58 528.38 870.1 523.44 869.49 518.99C868.852 515.592 867.723 512.304 866.14 509.23L862.23 500.69C858.9 493.4 855.54 486.06 850.9 479.53C849.228 477.463 847.821 475.195 846.71 472.78C845.52 469.69 842.25 467.52 840.27 464.87C837.33 460.87 834.27 456.87 830.33 453.98C828.75 452.76 826.21 451.58 824.28 451.9Z" fill="black"/>
<path id="Vector_32" d="M824.28 449.93C820.42 450.58 816.36 452.58 815.05 456.27C814.58 457.892 814.404 459.586 814.53 461.27C814.41 463.638 814.809 466.003 815.7 468.2C816.358 469.413 817.142 470.552 818.04 471.6C827.28 483.44 831.92 498.31 840.92 510.34C841.72 511.4 843.18 512.78 842.73 514.03C842.566 514.354 842.423 514.688 842.3 515.03C842.259 515.353 842.298 515.682 842.413 515.987C842.528 516.292 842.716 516.564 842.96 516.78C843.44 517.22 843.813 517.764 844.05 518.37C844.22 519 843.8 519.82 843.15 519.77C844.23 523.11 847.54 525.06 850.68 526.64C855.9 529.27 861.68 531.34 867.49 530.77C868.58 526.4 870.1 521.46 869.49 517.01C868.852 513.612 867.723 510.324 866.14 507.25L862.23 498.71C858.9 491.42 855.54 484.08 850.9 477.55C849.226 475.481 847.819 473.21 846.71 470.79C845.52 467.71 842.25 465.54 840.27 462.89C837.33 458.89 834.27 454.89 830.33 452C828.75 450.79 826.21 449.61 824.28 449.93Z" fill="#FF2929"/>
<path id="Vector_33" d="M815.47 366.18C812.68 366.42 809.81 366.68 807.29 367.9C804.77 369.12 802.62 371.52 802.54 374.32C802.54 375.95 803.14 377.57 802.93 379.18C802.58 381.86 800.09 383.67 798.81 386.04C796.57 390.16 798.31 395.4 801.21 399.04C804.11 402.68 808.04 405.48 811.02 409.1C813.371 411.994 815.071 415.361 816.006 418.97C816.942 422.58 817.089 426.348 816.44 430.02C816.07 431.447 815.892 432.916 815.91 434.39C816.14 437.01 817.91 439.18 819.67 441.18C828.231 451.191 836.154 461.732 843.39 472.74C845.561 475.937 847.512 479.278 849.23 482.74C850.93 486.32 852.23 490.14 854.59 493.31C856.769 496.032 859.438 498.321 862.46 500.06C870.082 504.761 878.728 507.55 887.66 508.19L882.51 495.42C881.6 493.15 880.66 490.76 880.96 488.33C881.53 483.73 886.17 480.71 887.68 476.33C888.68 473.51 888.23 470.4 887.41 467.53C885.59 461.06 881.95 455.24 879.99 448.81C878.271 443.172 877.888 437.212 878.87 431.4C879.3 428.84 880 426.27 879.68 423.7C878.73 415.88 869.56 412.14 865.32 405.51C862.58 401.25 862.05 396 861.13 391.02C859.8 383.75 857.43 376.49 852.85 370.69C848.27 364.89 841.21 360.69 833.85 361C829.91 361.15 826.14 362.52 822.43 363.86L812.79 367.37" fill="#3F3D56"/>
<g id="Group" opacity="0.1">
<path id="Vector_34" opacity="0.1" d="M858.5 382.51C859.33 387 859.85 391.71 861.95 395.72C861.66 394.16 861.42 392.59 861.13 391.05C860.451 387.13 859.372 383.29 857.91 379.59C858.16 380.56 858.33 381.53 858.5 382.51Z" fill="black"/>
<path id="Vector_35" opacity="0.1" d="M876.24 422.89C875.263 428.705 875.647 434.668 877.36 440.31C877.83 441.84 878.36 443.31 879 444.81C878.167 440.393 878.123 435.863 878.87 431.43C879.3 428.87 880 426.3 879.68 423.73C879.385 421.528 878.485 419.451 877.08 417.73C876.93 419.47 876.53 421.18 876.24 422.89Z" fill="black"/>
<path id="Vector_36" opacity="0.1" d="M887.41 467.56C886.856 465.681 886.188 463.838 885.41 462.04C885.746 463.969 885.616 465.951 885.03 467.82C883.52 472.19 878.87 475.22 878.31 479.82C878.01 482.25 878.94 484.64 879.86 486.91C880.2 487.76 880.54 488.62 880.86 489.47C880.835 489.1 880.835 488.73 880.86 488.36C881.43 483.76 886.07 480.74 887.58 476.36C888.66 473.54 888.23 470.43 887.41 467.56Z" fill="black"/>
<path id="Vector_37" opacity="0.1" d="M859.84 491.55C856.818 489.807 854.149 487.514 851.97 484.79C849.6 481.62 848.3 477.79 846.6 474.22C844.885 470.757 842.933 467.416 840.76 464.22C833.527 453.21 825.608 442.666 817.05 432.65C816.74 432.3 816.44 431.94 816.14 431.58C815.934 432.505 815.856 433.454 815.91 434.4C816.14 437.02 817.91 439.19 819.67 441.19C828.232 451.202 836.154 461.742 843.39 472.75C845.561 475.947 847.512 479.288 849.23 482.75C850.93 486.33 852.23 490.15 854.59 493.32C856.769 496.042 859.438 498.331 862.46 500.07C870.082 504.771 878.728 507.56 887.66 508.2L884.16 499.6C875.538 498.845 867.21 496.088 859.84 491.55V491.55Z" fill="black"/>
<path id="Vector_38" opacity="0.1" d="M808.39 400.6C805.39 396.98 801.48 394.23 798.58 390.55C798.32 390.21 798.07 389.86 797.82 389.49C797.76 392.99 798.964 396.395 801.21 399.08C804.11 402.77 808.04 405.52 811.02 409.14C812.183 410.546 813.189 412.075 814.02 413.7C813.401 408.894 811.451 404.357 808.39 400.6V400.6Z" fill="black"/>
</g>
<path id="Vector_39" d="M418.04 297.95L410.79 290.66C410.432 290.299 410.006 290.012 409.537 289.816C409.067 289.62 408.564 289.52 408.055 289.52C407.546 289.52 407.043 289.62 406.573 289.816C406.104 290.012 405.678 290.299 405.32 290.66L359.79 335.77L340.53 316.37C339.81 315.65 338.833 315.246 337.815 315.246C336.797 315.246 335.82 315.65 335.1 316.37L327.77 323.62C327.05 324.348 326.646 325.331 326.646 326.355C326.646 327.379 327.05 328.362 327.77 329.09L357.02 358.56C357.746 359.279 358.728 359.683 359.75 359.683C360.772 359.683 361.754 359.279 362.48 358.56L418.04 303.42C418.401 303.062 418.688 302.636 418.884 302.167C419.08 301.697 419.18 301.194 419.18 300.685C419.18 300.176 419.08 299.673 418.884 299.203C418.688 298.734 418.401 298.308 418.04 297.95V297.95Z" fill="#3ACC6C"/>
<path id="Vector_40" d="M619.04 297.95L611.79 290.66C611.432 290.299 611.006 290.012 610.537 289.816C610.067 289.62 609.564 289.52 609.055 289.52C608.546 289.52 608.043 289.62 607.573 289.816C607.104 290.012 606.678 290.299 606.32 290.66L560.79 335.77L541.53 316.37C540.81 315.65 539.833 315.246 538.815 315.246C537.797 315.246 536.82 315.65 536.1 316.37L528.77 323.62C528.05 324.348 527.646 325.331 527.646 326.355C527.646 327.379 528.05 328.362 528.77 329.09L558.02 358.56C558.746 359.279 559.728 359.683 560.75 359.683C561.772 359.683 562.753 359.279 563.48 358.56L619.04 303.42C619.401 303.062 619.688 302.636 619.884 302.167C620.08 301.697 620.18 301.194 620.18 300.685C620.18 300.176 620.08 299.673 619.884 299.203C619.688 298.734 619.401 298.308 619.04 297.95Z" fill="#3ACC6C"/>
</g>
</g>
<defs>
<filter id="filter0_d" x="-3.67291" y="-0.00527954" width="1136" height="762.952" filterUnits="userSpaceOnUse" color-interpolation-filters="sRGB">
<feFlood flood-opacity="0" result="BackgroundImageFix"/>
<feColorMatrix in="SourceAlpha" type="matrix" values="0 0 0 0 0 0 0 0 0 0 0 0 0 0 0 0 0 0 127 0"/>
<feOffset dy="4"/>
<feGaussianBlur stdDeviation="2"/>
<feColorMatrix type="matrix" values="0 0 0 0 0 0 0 0 0 0 0 0 0 0 0 0 0 0 0.25 0"/>
<feBlend mode="normal" in2="BackgroundImageFix" result="effect1_dropShadow"/>
<feBlend mode="normal" in="SourceGraphic" in2="effect1_dropShadow" result="shape"/>
</filter>
<linearGradient id="paint0_linear" x1="1019.5" y1="53" x2="18" y2="657" gradientUnits="userSpaceOnUse">
<stop stop-color="#3F6DE3"/>
<stop offset="1" stop-color="#3FD0E3" stop-opacity="0.72"/>
</linearGradient>
<linearGradient id="paint1_linear" x1="838.48" y1="786.74" x2="838.48" y2="342.25" gradientUnits="userSpaceOnUse">
<stop stop-color="#808080" stop-opacity="0.25"/>
<stop offset="0.54" stop-color="#808080" stop-opacity="0.12"/>
<stop offset="1" stop-color="#808080" stop-opacity="0.1"/>
</linearGradient>
<clipPath id="clip0">
<rect width="1128.33" height="786.75" fill="white"/>
</clipPath>
</defs>
</svg>
