<?xml version="1.0"?>
<svg xmlns="http://www.w3.org/2000/svg" id="Capa_1" enable-background="new 0 0 512 512" height="512px" viewBox="0 0 512 512" width="512px"><g><g><path d="m206.3 371.184h8.199c4.143 0 7.5-3.357 7.5-7.5s-3.357-7.5-7.5-7.5h-8.199c-4.999 0-9.066-4.067-9.066-9.066v-28.992c0-7.098 2.5-13.621 6.661-18.743l6.383 18.056c2.005 5.672 6.958 9.658 12.928 10.403.667.083 1.33.124 1.99.124 3.703 0 7.229-1.297 10.027-3.624l11.308 8.48c2.788 2.091 6.128 3.137 9.47 3.137 3.341 0 6.683-1.046 9.47-3.137l11.307-8.48c2.798 2.327 6.324 3.624 10.028 3.624.659 0 1.324-.041 1.99-.124 5.97-.745 10.923-4.731 12.928-10.402l6.383-18.057c4.161 5.122 6.661 11.645 6.661 18.743v28.992c0 4.999-4.067 9.066-9.066 9.066h-61.135c-4.143 0-7.5 3.357-7.5 7.5s3.357 7.5 7.5 7.5h61.133c13.271 0 24.066-10.796 24.066-24.066v-28.992c0-21.726-15.556-39.88-36.112-43.927.833-.731 1.654-1.48 2.451-2.264 11.023-10.841 17.095-25.325 17.095-40.784v-10.967c4.929-2.673 8.283-7.894 8.283-13.884v-24.85c0-22.405-18.228-40.634-40.634-40.634h-49.699c-22.405 0-40.634 18.229-40.634 40.634v24.85c0 5.99 3.354 11.211 8.283 13.884v10.148c0 17.403 7.723 33.13 19.862 43.81-20.712 3.922-36.429 22.147-36.429 43.983v28.992c.001 13.271 10.797 24.067 24.068 24.067zm18.761-58.227c-.48-.06-.589-.369-.642-.517l-7.847-22.198c3.249-1.22 6.764-1.892 10.435-1.892h14.979l-16.176 24.265c-.086.13-.262.406-.749.342zm31.409 7.865c-.277.207-.662.207-.939 0l-11.443-8.582 11.912-17.87 11.913 17.87zm31.11-8.382c-.053.147-.161.456-.642.517-.484.06-.662-.212-.749-.343l-16.176-24.265h14.979c3.67 0 7.185.672 10.435 1.892zm-82.063-130.99c0-14.135 11.499-25.634 25.634-25.634h49.699c14.135 0 25.634 11.499 25.634 25.634v24.85c0 .432-.352.783-.783.783-12.146 0-22.71-8.621-25.121-20.5-1.486-7.319-7.987-12.633-15.457-12.633h-18.244c-7.47 0-13.971 5.314-15.458 12.635-2.41 11.877-12.975 20.498-25.12 20.498-.432 0-.783-.352-.783-.783v-24.85zm8.283 48.882v-8.957c15.962-3.016 29.004-15.465 32.32-31.805.073-.359.392-.619.758-.619h18.244c.366 0 .685.26.757.617 3.317 16.342 16.359 28.791 32.321 31.807v9.776c0 11.405-4.479 22.091-12.612 30.089-7.958 7.826-18.438 12.11-29.585 12.11-.012 0-.024 0-.036 0-.003 0-.006 0-.009 0-.226 0-.454-.002-.682-.005-22.87-.383-41.476-19.678-41.476-43.013z" data-original="#000000" class="active-path" data-old_color="#000000" fill="#007D51"/><path d="m239.434 238.65c4.143 0 7.5-3.357 7.5-7.5v-4.143c0-4.143-3.357-7.5-7.5-7.5s-7.5 3.357-7.5 7.5v4.143c0 4.143 3.357 7.5 7.5 7.5z" data-original="#000000" class="active-path" data-old_color="#000000" fill="#007D51"/><path d="m272.566 238.65c4.143 0 7.5-3.357 7.5-7.5v-4.143c0-4.143-3.357-7.5-7.5-7.5s-7.5 3.357-7.5 7.5v4.143c0 4.143 3.358 7.5 7.5 7.5z" data-original="#000000" class="active-path" data-old_color="#000000" fill="#007D51"/><path d="m256 81.267c13.271 0 24.066-10.796 24.066-24.066s-10.795-24.068-24.066-24.068c-13.27 0-24.066 10.797-24.066 24.067s10.796 24.067 24.066 24.067zm0-33.134c4.999 0 9.066 4.067 9.066 9.067 0 4.999-4.067 9.066-9.066 9.066s-9.066-4.067-9.066-9.066c0-5 4.067-9.067 9.066-9.067z" data-original="#000000" class="active-path" data-old_color="#000000" fill="#007D51"/><path d="m81.267 256c0-13.27-10.796-24.066-24.066-24.066s-24.068 10.796-24.068 24.066c0 13.271 10.797 24.066 24.067 24.066s24.067-10.795 24.067-24.066zm-33.134 0c0-4.999 4.067-9.066 9.067-9.066 4.999 0 9.066 4.067 9.066 9.066s-4.067 9.066-9.066 9.066c-5 0-9.067-4.067-9.067-9.066z" data-original="#000000" class="active-path" data-old_color="#000000" fill="#007D51"/><path d="m512 256c0-25.505-16.782-47.157-39.881-54.513-9.812-38.891-30.021-74.439-58.63-103.037-28.589-28.577-64.114-48.764-102.976-58.569-7.356-23.099-29.009-39.881-54.513-39.881-25.514 0-47.174 16.794-54.522 39.907-16.977 4.286-33.434 10.565-48.968 18.743-3.665 1.93-5.072 6.466-3.143 10.131 1.343 2.551 3.947 4.008 6.644 4.008 1.178 0 2.373-.278 3.487-.865 12.545-6.605 25.737-11.874 39.327-15.769-.006.349-.027.695-.027 1.046 0 5.952.916 11.694 2.611 17.094-29.905 9.003-57.271 25.349-79.55 47.642-22.255 22.267-38.573 49.605-47.566 79.475-5.401-1.695-11.143-2.611-17.096-2.611-.356 0-.708.02-1.063.027 12.751-44.514 40.188-83.707 78.1-111.203 3.354-2.432 4.1-7.121 1.668-10.475s-7.122-4.101-10.475-1.668c-42.549 30.859-72.798 75.474-85.548 126.005-23.096 7.355-39.879 29.008-39.879 54.513 0 25.504 16.782 47.157 39.881 54.513 9.811 38.883 30.014 74.425 58.613 103.019 28.59 28.586 64.122 48.78 102.993 58.586 7.355 23.1 29.008 39.882 54.513 39.882 25.504 0 47.157-16.782 54.513-39.881 38.891-9.812 74.439-30.021 103.036-58.63 28.578-28.589 48.765-64.114 58.57-102.976 23.099-7.356 39.881-29.008 39.881-54.513zm-56.133-57.173c-.356-.007-.709-.027-1.067-.027-5.952 0-11.694.916-17.094 2.611-9.009-29.923-25.369-57.303-47.681-79.59-22.26-22.234-49.584-38.538-79.436-47.526 1.695-5.401 2.611-11.143 2.611-17.095 0-.358-.021-.711-.027-1.068 68.525 19.671 123.024 74.167 142.694 142.695zm-199.867-183.827c23.27 0 42.2 18.931 42.2 42.2s-18.93 42.2-42.2 42.2-42.2-18.931-42.2-42.2c0-3.038.33-6 .943-8.858.112-.358.198-.725.255-1.1 4.488-18.478 21.163-32.242 41.002-32.242zm-48.151 73.017c10.181 15.851 27.954 26.383 48.151 26.383 20.198 0 37.971-10.533 48.152-26.385 57.994 16.612 103.213 61.83 119.831 119.834-15.851 10.181-26.383 27.954-26.383 48.151 0 20.198 10.533 37.971 26.384 48.151-16.613 57.993-61.833 103.215-119.834 119.831-10.18-15.85-27.953-26.382-48.15-26.382-20.198 0-37.971 10.533-48.151 26.384-57.999-16.614-103.217-61.832-119.833-119.832 15.852-10.181 26.384-27.954 26.384-48.152s-10.533-37.971-26.384-48.151c16.614-57.998 61.831-103.216 119.833-119.832zm-192.849 167.983c0-23.27 18.931-42.2 42.2-42.2s42.2 18.93 42.2 42.2-18.931 42.2-42.2 42.2-42.2-18.93-42.2-42.2zm41.133 57.173c.356.007.71.027 1.068.027 5.952 0 11.694-.916 17.095-2.611 9 29.895 25.338 57.253 47.62 79.528 22.271 22.265 49.616 38.592 79.496 47.588-1.695 5.401-2.611 11.143-2.611 17.095 0 .358.02.711.027 1.068-68.522-19.671-123.024-74.172-142.695-142.695zm199.867 183.827c-23.27 0-42.2-18.931-42.2-42.2s18.931-42.2 42.2-42.2 42.2 18.931 42.2 42.2-18.93 42.2-42.2 42.2zm57.173-41.132c.007-.357.027-.71.027-1.068 0-5.952-.916-11.694-2.611-17.094 29.915-9.006 57.289-25.36 79.572-47.663 22.243-22.263 38.553-49.593 47.543-79.453 5.401 1.695 11.143 2.611 17.095 2.611.358 0 .711-.021 1.068-.027-19.67 68.524-74.165 123.022-142.694 142.694zm141.627-157.668c-23.27 0-42.2-18.931-42.2-42.2s18.931-42.2 42.2-42.2 42.2 18.93 42.2 42.2-18.931 42.2-42.2 42.2z" data-original="#000000" class="active-path" data-old_color="#000000" fill="#007D51"/><path d="m454.8 231.934c-13.271 0-24.066 10.796-24.066 24.066 0 13.271 10.796 24.066 24.066 24.066s24.067-10.796 24.067-24.066-10.797-24.066-24.067-24.066zm0 33.132c-4.999 0-9.066-4.067-9.066-9.066s4.067-9.066 9.066-9.066c5 0 9.067 4.067 9.067 9.066s-4.067 9.066-9.067 9.066z" data-original="#000000" class="active-path" data-old_color="#000000" fill="#007D51"/><path d="m256 430.733c-13.27 0-24.066 10.796-24.066 24.066s10.796 24.068 24.066 24.068c13.271 0 24.066-10.797 24.066-24.067s-10.795-24.067-24.066-24.067zm0 33.134c-4.999 0-9.066-4.067-9.066-9.067 0-4.999 4.067-9.066 9.066-9.066s9.066 4.067 9.066 9.066c0 5-4.067 9.067-9.066 9.067z" data-original="#000000" class="active-path" data-old_color="#000000" fill="#007D51"/></g></g> </svg>
