<svg width="1447" height="1060" viewBox="0 0 1447 1060" fill="none" xmlns="http://www.w3.org/2000/svg">
<g id="undraw_choice_9385 1">
<g id="undraw_transfer_money_rywa 1">
<path id="Vector" d="M601.714 879.209C797.97 879.209 957.066 692.465 957.066 462.105C957.066 231.744 797.97 45 601.714 45C405.459 45 246.363 231.744 246.363 462.105C246.363 692.465 405.459 879.209 601.714 879.209Z" fill="#F2F2F2"/>
<path id="Vector_2" d="M293.997 937C371.868 937 434.995 925.145 434.995 910.52C434.995 895.896 371.868 884.04 293.997 884.04C216.127 884.04 153 895.896 153 910.52C153 925.145 216.127 937 293.997 937Z" fill="#F2F2F2"/>
<path id="Vector_3" d="M981.835 910.083C1102.32 910.083 1200 891.739 1200 869.11C1200 846.482 1102.32 828.138 981.835 828.138C861.346 828.138 763.671 846.482 763.671 869.11C763.671 891.739 861.346 910.083 981.835 910.083Z" fill="#F2F2F2"/>
<path id="Vector_4" d="M933.363 475.283C933.363 475.283 935.22 482.55 924.695 489.09C914.17 495.631 911.074 520.339 923.457 527.606C935.84 534.874 939.554 544.321 933.363 550.861C927.172 557.402 916.027 574.843 930.887 579.204C945.746 583.564 947.603 592.285 943.269 595.918C938.935 599.552 953.175 589.378 953.175 589.378C953.175 589.378 955.652 606.819 968.653 602.459C981.655 598.098 1018.18 515.252 999.61 503.625C981.036 491.997 933.363 475.283 933.363 475.283Z" fill="#2F2E41"/>
<path id="Vector_5" d="M955.803 545.455C955.803 545.455 962.226 571.839 950.987 573.723C944.012 574.999 937.403 578.232 931.72 583.146L952.592 615.184H991.126L1015.21 586.915C1015.21 586.915 983.098 558.647 989.52 541.686C995.942 524.724 955.803 545.455 955.803 545.455Z" fill="#FFB9B9"/>
<path id="Vector_6" opacity="0.1" d="M955.803 545.455C955.803 545.455 962.226 571.839 950.987 573.723C944.012 574.999 937.403 578.232 931.72 583.146L952.592 615.184H991.126L1015.21 586.915C1015.21 586.915 983.098 558.647 989.52 541.686C995.942 524.724 955.803 545.455 955.803 545.455Z" fill="black"/>
<path id="Vector_7" d="M965.437 873.37L1002.36 888.447L1028.05 890.331L1026.45 863.947L973.464 845.554L965.437 873.37Z" fill="#FFB9B9"/>
<path id="Vector_8" d="M1012.8 867.716C1012.8 867.716 1012.8 894.1 1016.01 894.1C1019.22 894.1 1062.57 888.446 1075.42 894.1C1088.26 899.754 1107.53 879.024 1097.9 867.716C1088.26 856.409 1072.55 839.448 1062.74 843.217C1052.94 846.986 1012.8 856.409 1012.8 856.409V867.716Z" fill="#575A89"/>
<path id="Vector_9" d="M894.792 843.217C894.792 843.217 875.525 888.446 888.37 892.216C901.214 895.985 915.664 890.331 917.27 888.446C918.875 886.562 941.353 879.024 944.564 882.793C947.775 886.562 947.775 867.716 947.775 867.716L894.792 843.217Z" fill="#575A89"/>
<path id="Vector_10" d="M910.848 781.026C910.848 781.026 880.342 830.025 902.82 843.217C925.298 856.409 1032.87 856.409 1040.9 843.217C1048.93 830.025 1052.14 788.564 1040.9 784.795C1029.66 781.026 910.848 781.026 910.848 781.026Z" fill="#2F2E41"/>
<path id="Vector_11" opacity="0.2" d="M910.848 781.026C910.848 781.026 880.342 830.025 902.82 843.217C925.298 856.409 1032.87 856.409 1040.9 843.217C1048.93 830.025 1052.14 788.564 1040.9 784.795C1029.66 781.026 910.848 781.026 910.848 781.026Z" fill="black"/>
<path id="Vector_12" d="M968.648 558.647C989.042 558.647 1005.58 539.24 1005.58 515.302C1005.58 491.363 989.042 471.956 968.648 471.956C948.253 471.956 931.72 491.363 931.72 515.302C931.72 539.24 948.253 558.647 968.648 558.647Z" fill="#FFB9B9"/>
<path id="Vector_13" d="M910.848 583.146L942.959 575.608C942.959 575.608 950.987 605.761 976.675 600.107C1002.36 594.454 1008.79 575.608 1008.79 575.608C1008.79 575.608 1028.05 585.031 1029.66 585.031C1031.26 585.031 1052.14 594.454 1052.14 600.107C1052.14 605.761 1028.05 662.298 1028.05 662.298L1031.26 764.065L912.453 760.296L920.481 660.414L910.848 583.146Z" fill="#17A66E"/>
<path id="Vector_14" d="M893.187 632.145C893.187 632.145 883.553 732.027 889.976 739.565C896.398 747.104 922.087 767.834 922.087 767.834V745.219L909.242 716.951L922.087 650.991L893.187 632.145Z" fill="#FFB9B9"/>
<path id="Vector_15" d="M1059.36 629.318C1059.36 629.318 1053.74 732.027 1053.74 735.796C1053.74 739.565 1039.29 752.758 1034.48 752.758C1029.66 752.758 1026.45 743.335 1026.45 743.335L1037.69 728.258L1029.66 650.991L1059.36 629.318Z" fill="#FFB9B9"/>
<path id="Vector_16" d="M1044.11 773.488C1044.11 773.488 1116.36 726.373 1117.96 773.488C1119.57 820.602 1081.04 839.448 1081.04 839.448C1081.04 839.448 981.492 874.484 977.478 861.677C973.464 848.87 965.437 828.14 971.859 826.256C978.281 824.371 986.309 820.602 989.52 824.371C992.731 828.14 1032.87 796.103 1032.87 796.103L1044.11 773.488Z" fill="#2F2E41"/>
<path id="Vector_17" opacity="0.2" d="M1077.83 767.834C1077.83 767.834 1063.38 775.372 1058.56 781.026C1053.74 786.68 1032.87 796.103 1032.87 796.103" stroke="black" stroke-width="2" stroke-miterlimit="10"/>
<path id="Vector_18" d="M920.481 586.915L910.848 583.146C910.848 583.146 875.526 626.491 886.764 637.799C898.003 649.106 904.425 652.875 907.637 656.644C910.848 660.414 926.903 662.298 926.903 662.298L920.481 586.915Z" fill="#17A66E"/>
<path id="Vector_19" d="M1037.69 596.338L1052.14 600.107C1052.14 600.107 1063.38 628.376 1066.59 632.145C1069.8 635.914 1061.77 634.029 1056.95 641.568C1052.14 649.106 1047.32 662.298 1037.69 662.298C1028.05 662.298 1015.21 643.452 1015.21 643.452L1037.69 596.338Z" fill="#17A66E"/>
<path id="Vector_20" d="M914.059 790.449C914.059 790.449 853.048 739.565 832.175 777.257C811.303 814.948 922.087 865.832 938.142 873.37C954.198 880.908 968.648 888.446 968.648 888.446C968.648 888.446 983.098 846.986 983.098 839.448C983.098 831.909 971.859 831.909 968.648 831.909C965.437 831.909 950.987 828.14 947.775 822.487C944.564 816.833 914.059 790.449 914.059 790.449Z" fill="#2F2E41"/>
<path id="Vector_21" opacity="0.2" d="M880.342 777.257C880.342 777.257 896.398 792.333 910.848 796.103C925.298 799.872 930.114 809.295 930.114 809.295" stroke="black" stroke-width="2" stroke-miterlimit="10"/>
<path id="Vector_22" d="M902.984 706.398L904.266 786.191C904.309 788.827 905.237 791.336 906.848 793.172C908.46 795.007 910.625 796.021 912.87 795.991L1039.38 794.323C1041.53 794.294 1043.6 793.307 1045.16 791.56C1046.72 789.812 1047.65 787.436 1047.78 784.91L1051.62 706.785C1051.68 705.427 1051.51 704.067 1051.12 702.789C1050.72 701.511 1050.11 700.342 1049.31 699.352C1048.51 698.363 1047.56 697.575 1046.49 697.037C1045.43 696.498 1044.28 696.22 1043.12 696.22H911.492C910.361 696.22 909.241 696.485 908.198 696.999C907.155 697.513 906.21 698.265 905.418 699.213C904.626 700.161 904.003 701.284 903.585 702.518C903.167 703.751 902.962 705.07 902.984 706.398Z" fill="#D0CDE1"/>
<path id="Vector_23" d="M970.621 460.852C970.621 460.852 972.678 468.902 961.018 476.148C949.359 483.393 945.929 510.766 959.647 518.816C973.364 526.867 977.479 537.333 970.621 544.578C963.762 551.824 951.416 571.145 967.877 575.975C984.338 580.806 986.396 590.466 981.595 594.492C976.793 598.517 992.569 587.246 992.569 587.246C992.569 587.246 995.312 606.568 1009.72 601.737C1024.12 596.907 1038.49 509.102 1022.43 486.487C1007.51 465.46 970.621 460.852 970.621 460.852Z" fill="#2F2E41"/>
<path id="Vector_24" d="M966.239 452.565C966.243 440.771 996.305 449.246 1009.19 465.713C1018.12 477.117 1031.68 494.274 1020.32 506.367C1008.96 518.461 1039.79 534.315 1048.06 539.121C1056.33 543.928 1072.65 558.627 1057.91 568.488C1043.17 578.348 1043.41 588.303 1048.96 590.659C1054.5 593.016 1036.72 587.155 1036.72 587.155C1036.72 587.155 1038.52 606.629 1023.54 606.536C1008.56 606.443 965.586 509.814 975.852 482.956C985.398 457.982 966.239 452.565 966.239 452.565Z" fill="#2F2E41"/>
<path id="Vector_25" d="M972.751 449.98C932.55 447.139 928.515 482.659 928.515 482.659C928.793 503.214 956.603 493.198 964.327 496.263C973.646 488.394 991.608 473.506 1004.45 462.882C995.127 455.173 984.141 450.702 972.751 449.98Z" fill="#2F2E41"/>
<path id="Vector_26" d="M961.298 676.638C961.298 676.638 925.237 478.262 699.526 334.357" stroke="#3F3D56" stroke-width="2" stroke-miterlimit="10"/>
<path id="Vector_27" d="M218.233 879.333C218.233 904.459 205.509 913.232 189.811 913.232C189.448 913.232 189.084 913.227 188.722 913.217C187.995 913.199 187.274 913.158 186.563 913.101C172.396 911.925 161.389 902.7 161.389 879.333C161.389 855.151 187.716 824.638 189.693 822.379L189.697 822.375C189.773 822.288 189.811 822.245 189.811 822.245C189.811 822.245 218.233 854.208 218.233 879.333Z" fill="#17A66E"/>
<path id="Vector_28" d="M188.776 909.388L199.171 892.338L188.75 911.26L188.722 913.217C187.995 913.199 187.274 913.158 186.563 913.102L187.683 887.964L187.674 887.769L187.693 887.732L187.799 885.358L177.352 866.39L187.832 883.578L187.856 884.082L188.703 865.089L179.759 845.488L188.812 861.755L189.693 822.379L189.697 822.245V822.375L189.55 853.426L198.454 841.116L189.513 856.101L189.278 873.105L197.592 856.785L189.243 875.608L189.112 885.061L201.181 862.347L189.067 888.36L188.776 909.388Z" fill="#3F3D56"/>
<path id="Vector_29" d="M353.8 872.824L359.88 867.522C359.88 867.522 363.905 893.909 359.414 897.863C354.923 901.816 338.083 908.405 338.083 916.312C338.083 924.219 299.911 934.761 298.788 922.901C297.665 911.041 302.156 904.451 302.156 904.451C302.156 904.451 320.119 883.367 322.365 879.413C324.61 875.46 330.224 867.553 330.224 867.553L353.8 872.824Z" fill="#2F2E41"/>
<path id="Vector_30" d="M263.984 544.691C263.984 544.691 264.153 545.85 264.444 547.972C264.714 549.856 265.084 552.519 265.534 555.8C270.249 589.575 284.002 689.004 283.07 692.285C281.947 696.238 274.089 710.734 283.07 714.688C283.935 715.07 284.866 716.308 285.866 718.259C287.794 722.46 289.384 726.863 290.615 731.411C295.97 749.649 301.696 778.838 305.008 799.053C306.456 807.935 307.444 815.078 307.736 818.82C307.837 819.685 307.849 820.562 307.77 821.43C306.647 826.701 314.506 845.15 317.874 850.421C321.242 855.693 326.856 860.964 325.733 866.235C324.61 871.506 353.8 886.002 357.168 876.778C360.537 867.553 360.537 862.282 361.659 859.646C362.782 857.011 363.905 838.561 358.291 835.926C352.678 833.29 356.046 787.167 350.432 777.942C348.557 774.872 345.694 764.474 342.697 751.968C341.518 747.066 340.328 741.848 339.16 736.616C334.423 715.175 330.224 693.603 330.224 693.603L331.346 539.419L269.598 530.195L268.015 534.293L264.86 542.424L263.984 544.691Z" fill="#2F2E41"/>
<path id="Vector_31" d="M260.616 797.709C260.616 797.709 251.635 787.167 247.144 797.709C242.653 808.252 238.162 849.104 230.303 858.328C222.444 867.553 212.34 913.676 223.567 916.312C234.794 918.947 247.144 912.358 248.266 904.451C249.389 896.545 272.966 855.693 272.966 851.739C272.966 847.786 257.248 833.29 257.248 833.29L260.616 797.709Z" fill="#2F2E41"/>
<path id="Vector_32" d="M398.708 472.211C398.708 472.211 384.113 626.395 380.745 640.89C377.377 655.386 359.414 710.734 353.8 719.959C348.187 729.183 312.26 804.298 307.77 808.252C303.279 812.205 294.297 822.748 294.297 822.748C294.297 822.748 277.457 842.515 275.211 846.468C272.966 850.421 253.88 838.561 252.757 830.654C251.635 822.748 253.88 809.57 255.003 804.298C256.125 799.027 252.757 791.12 256.125 787.167C259.493 783.213 276.334 763.446 276.334 754.222C276.334 744.997 305.524 690.967 316.751 679.107C327.978 667.247 325.733 647.48 325.733 647.48V567.093L263.984 544.691C263.984 544.691 267.352 481.436 275.211 481.436C283.07 481.436 386.359 460.351 398.708 472.211Z" fill="#2F2E41"/>
<path id="Vector_33" d="M307.77 252.138C328.231 252.138 344.819 232.668 344.819 208.65C344.819 184.633 328.231 165.163 307.77 165.163C287.308 165.163 270.72 184.633 270.72 208.65C270.72 232.668 287.308 252.138 307.77 252.138Z" fill="#9F616A"/>
<path id="Vector_34" d="M320.119 242.913C320.119 242.913 324.61 262.68 330.224 267.952C335.837 273.223 315.629 295.626 315.629 295.626L277.457 298.261L270.72 273.223C270.72 273.223 283.07 244.231 279.702 225.782C276.334 207.333 320.119 242.913 320.119 242.913Z" fill="#9F616A"/>
<path id="Vector_35" d="M335.837 265.316C335.837 265.316 325.733 266.634 323.487 270.587C321.242 274.541 305.524 286.401 293.174 283.765C280.825 281.13 272.966 277.176 270.72 278.494C268.475 279.812 263.984 307.486 263.984 307.486L276.334 349.656L274.089 465.622L270.72 497.25C270.72 497.25 263.984 486.707 290.929 493.296C317.874 499.885 352.678 488.025 363.905 486.707C375.132 485.39 394.218 481.436 395.34 473.529C396.463 465.622 391.972 436.631 391.972 436.631L374.009 348.338L362.782 300.897L335.837 265.316Z" fill="#17A66E"/>
<path id="Vector_36" d="M325.218 259.368C325.218 259.368 334.714 253.456 338.083 258.727C341.451 263.998 384.113 271.905 384.113 275.858C384.113 279.812 393.095 386.554 390.849 395.779C388.604 405.003 395.34 415.546 395.34 415.546L403.199 455.08C403.199 455.08 424.531 530.195 415.549 532.831C406.567 535.466 398.708 532.831 395.34 532.831C391.972 532.831 393.095 482.754 384.113 469.576C375.132 456.398 362.782 423.453 360.537 416.864C358.291 410.275 330.224 319.346 331.346 308.804C332.469 298.261 325.218 259.368 325.218 259.368Z" fill="#D0CDE1"/>
<path id="Vector_37" d="M278.579 265.316C278.579 265.316 269.598 265.316 268.475 267.952C267.352 270.587 256.125 287.719 251.635 291.672C247.144 295.626 231.426 312.757 231.426 316.71C231.426 320.664 263.984 349.656 263.984 349.656C263.984 349.656 277.457 427.406 270.72 453.762C263.984 480.118 253.88 543.373 258.371 547.326C262.862 551.28 272.966 552.598 272.966 547.326C272.966 542.055 279.702 485.389 285.316 473.529C290.929 461.669 307.77 386.554 301.033 365.469C294.297 344.384 278.579 265.316 278.579 265.316Z" fill="#D0CDE1"/>
<path id="Vector_38" d="M426.776 395.779C426.776 395.779 427.899 436.631 415.549 457.716C403.199 478.8 395.34 502.521 395.34 502.521C395.34 502.521 375.132 495.932 371.764 488.025C368.395 480.118 347.064 486.707 347.064 484.072C347.064 481.436 372.886 468.258 375.132 465.622C377.377 462.987 385.236 462.987 389.727 457.716C394.218 452.444 395.34 440.584 395.34 440.584L399.831 406.321L426.776 395.779Z" fill="#9F616A"/>
<path id="Vector_39" d="M333.287 181.837C336.137 181.533 339.077 181.199 341.596 179.604C347.24 176.031 348.737 165.857 344.44 160.269C343.255 158.847 341.93 157.597 340.493 156.544L331.959 149.725C328.185 146.71 324.321 143.645 319.919 142.223C315.937 140.938 311.732 141.07 307.61 141.371C299.609 141.954 291.558 143.16 284.033 146.403C276.507 149.645 269.487 155.07 264.929 162.811C257.703 175.083 257.604 191.634 261.584 205.801C265.563 219.968 273.123 232.305 280.572 244.391L284.437 222.256C284.781 220.284 285.226 218.123 286.623 216.957C290.095 214.056 294.342 220.011 298.604 219.972C301.342 219.948 303.641 217.304 304.678 214.33C305.716 211.356 305.784 208.062 306.024 204.86C306.533 198.079 308.552 188.643 314.023 184.903C319.121 181.418 327.557 182.448 333.287 181.837Z" fill="#2F2E41"/>
<path id="Vector_40" opacity="0.1" d="M331.209 545.754C331.209 545.754 327.417 674.495 325.171 678.448C322.926 682.401 325.171 545.35 325.171 545.35L331.209 545.754Z" fill="black"/>
<path id="Vector_41" d="M375.132 275.858H384.113C384.113 275.858 422.285 336.478 417.794 340.431C413.303 344.384 417.794 354.927 417.794 354.927L426.776 374.694C426.776 374.694 438.003 386.554 434.635 389.19C431.267 391.825 426.776 402.368 426.776 402.368C426.776 402.368 404.322 398.414 397.586 414.228L383.024 392.651L375.132 275.858Z" fill="#D0CDE1"/>
<path id="Vector_42" d="M378.306 295.357L347.486 310.295L371.203 377.709L402.023 362.771L378.306 295.357Z" fill="#2F2E41"/>
<path id="Vector_43" d="M374.694 334.895C378.098 333.245 379.811 328.932 378.52 325.261C377.228 321.59 373.422 319.952 370.017 321.602C366.613 323.252 364.9 327.566 366.192 331.237C367.483 334.907 371.29 336.545 374.694 334.895Z" fill="#17A66E"/>
<path id="Vector_44" d="M352.678 381.283C352.678 381.283 271.843 460.351 258.371 435.313C244.898 410.275 272.966 389.19 272.966 389.19C272.966 389.19 297.665 390.508 325.733 369.423L353.8 354.927C353.8 354.927 379.424 311.987 388.156 328.338C396.887 344.689 373.251 373.147 352.678 381.283Z" fill="#9F616A"/>
<path id="Vector_45" d="M243.776 311.439L231.426 316.71V356.245L226.935 364.151C226.935 364.151 228.058 379.965 231.426 383.919C234.794 387.872 241.53 386.554 239.285 395.779C237.935 401.793 237.555 408.05 238.162 414.228C238.162 414.228 258.371 444.538 259.493 440.584C260.616 436.631 276.334 387.872 278.579 387.872C280.825 387.872 256.125 311.439 256.125 311.439H243.776Z" fill="#D0CDE1"/>
<path id="Vector_46" d="M391.411 511.087C391.411 511.087 403.019 497.909 397.215 497.25C391.411 496.591 371.202 483.413 367.834 490.002C364.466 496.591 391.411 511.087 391.411 511.087Z" fill="#2F2E41"/>
<path id="Vector_47" d="M612.194 259.703C621.138 259.703 628.389 255.197 628.389 249.639C628.389 244.08 621.138 239.575 612.194 239.575C603.249 239.575 595.998 244.08 595.998 249.639C595.998 255.197 603.249 259.703 612.194 259.703Z" fill="#17A66E"/>
<path id="Vector_48" d="M674.118 283.186C637.599 266.996 601.079 266.996 564.56 283.186V230.629C600.284 217.975 638.394 217.975 674.118 230.629V283.186Z" stroke="#3F3D56" stroke-width="2" stroke-miterlimit="10"/>
<path id="Vector_49" d="M658.875 272.317C632.518 260.632 606.16 260.632 579.803 272.317V234.384C605.586 225.252 633.092 225.252 658.875 234.384V272.317Z" stroke="#3F3D56" stroke-width="2" stroke-miterlimit="10"/>
<path id="Vector_50" d="M617.91 255.23C626.855 255.23 634.106 250.724 634.106 245.166C634.106 239.607 626.855 235.102 617.91 235.102C608.965 235.102 601.714 239.607 601.714 245.166C601.714 250.724 608.965 255.23 617.91 255.23Z" stroke="#3F3D56" stroke-width="2" stroke-miterlimit="10"/>
<path id="Vector_51" d="M624.102 322.731C632.866 320.632 639.203 314.515 638.256 309.069C637.309 303.623 629.437 300.91 620.673 303.009C611.909 305.109 605.572 311.226 606.519 316.672C607.466 322.118 615.338 324.831 624.102 322.731Z" fill="#17A66E"/>
<path id="Vector_52" d="M688.777 331.205C650.237 323.914 614.455 332.486 581.431 356.921L572.477 305.425C605.324 284.642 642.665 275.696 679.823 279.709L688.777 331.205Z" stroke="#3F3D56" stroke-width="2" stroke-miterlimit="10"/>
<path id="Vector_53" d="M671.99 324.133C644.174 318.871 618.349 325.058 594.514 342.693L588.052 305.527C611.759 290.527 638.709 284.07 665.527 286.966L671.99 324.133Z" stroke="#3F3D56" stroke-width="2" stroke-miterlimit="10"/>
<path id="Vector_54" d="M628.941 317.007C637.705 314.907 644.042 308.79 643.095 303.344C642.148 297.898 634.276 295.185 625.512 297.285C616.748 299.385 610.411 305.501 611.358 310.947C612.305 316.393 620.177 319.106 628.941 317.007Z" stroke="#3F3D56" stroke-width="2" stroke-miterlimit="10"/>
<path id="Vector_55" d="M635.186 376.744C635.514 371.199 628.547 366.113 619.624 365.384C610.701 364.655 603.201 368.559 602.872 374.104C602.544 379.649 609.511 384.735 618.434 385.464C627.357 386.193 634.857 382.289 635.186 376.744Z" fill="#17A66E"/>
<path id="Vector_56" d="M678.82 413.936C643.346 394.81 606.915 391.834 569.526 405.009L572.634 352.578C609.02 342.866 647.039 345.972 681.928 361.506L678.82 413.936Z" stroke="#3F3D56" stroke-width="2" stroke-miterlimit="10"/>
<path id="Vector_57" d="M664.257 401.851C638.654 388.047 612.36 385.899 585.375 395.408L587.618 357.567C613.88 350.557 641.319 352.799 666.5 364.01L664.257 401.851Z" stroke="#3F3D56" stroke-width="2" stroke-miterlimit="10"/>
<path id="Vector_58" d="M641.152 372.747C641.481 367.202 634.514 362.116 625.591 361.388C616.668 360.659 609.168 364.563 608.839 370.108C608.511 375.653 615.478 380.739 624.401 381.467C633.324 382.196 640.824 378.292 641.152 372.747Z" stroke="#3F3D56" stroke-width="2" stroke-miterlimit="10"/>
<path id="Vector_59" d="M548.289 284.406C548.289 284.406 478.271 273.163 428.269 307.558" stroke="#3F3D56" stroke-width="2" stroke-miterlimit="10"/>
<ellipse id="Ellipse 1" cx="977.5" cy="743" rx="12.5" ry="10" fill="white"/>
</g>
</g>
</svg>
