<svg height="512" viewBox="0 0 512 512" width="512" xmlns="http://www.w3.org/2000/svg"><path d="m391.995 304-55.995-7.999v-64h-80v64l-56 12v51.999h192z" fill="#fec9a3"/><path d="m336 262.779v-38.779h-80v38.779a91.369 91.369 0 0 0 80 0z" fill="#feb784"/><path d="m448 496v-142.37a48 48 0 0 0 -41.212-47.518l-70.788-10.112-17.143 48h-45.714l-17.143-48-56 12v188z" fill="#e0e0de"/><path d="m448 353.63v142.37h-248v-112l-59.87 88.54a32.467 32.467 0 0 1 -57.32-30.2l47.43-94.84a64 64 0 0 1 43.83-33.94l81.93-17.56 40 112 40-112 70.79 10.11a47.96 47.96 0 0 1 41.21 47.52z" fill="#3c5174"/><path d="m448 353.63v142.37h-248v-19.7c88.47-35.65 162.85-74.86 225.05-163.63a48.01 48.01 0 0 1 22.95 40.96z" fill="#354766"/><g fill="#2e3e51"><path d="m288 408h16v88h-16z"/><path d="m320 424h72v16h-72z"/><path d="m200 424h72v16h-72z"/><path d="m384 384h16v112h-16z"/></g><path d="m225.871 302.456 6.129 73.544 43.661-24.949-19.661-71.051z" fill="#49648e"/><path d="m316.339 351.051 43.661 24.949 6.306-75.671-30.306-20.329z" fill="#49648e"/><path d="m216.4 128h-.4a24 24 0 0 0 0 48h8.48l-.48-48z" fill="#feb784"/><path d="m376 128h-8v48h8a24 24 0 1 0 0-48z" fill="#feb784"/><path d="m368 120v56a129.8 129.8 0 0 1 -3.88 31.52 64.008 64.008 0 0 1 -62.09 48.48h-12.06c-1.64 0-3.26-.06-4.87-.19a63.99 63.99 0 0 1 -57.22-48.29 129.475 129.475 0 0 1 -3.88-31.52v-56a72.006 72.006 0 0 1 62.14-71.32h.01a72 72 0 0 1 81.85 71.32z" fill="#fec9a3"/><path d="m368 120v56a129.8 129.8 0 0 1 -3.88 31.52 64.008 64.008 0 0 1 -62.09 48.48h-12.06c-1.64 0-3.26-.06-4.87-.19a88 88 0 0 0 50.9-79.81v-48a88.141 88.141 0 0 0 -49.85-79.32 72 72 0 0 1 81.85 71.32z" fill="#fec093"/><path d="m285.117 207h-13.117v-16h13.117a120.082 120.082 0 0 0 40.172-6.527l5.422 15.054a136.275 136.275 0 0 1 -45.594 7.473z" fill="#f7a468"/><path d="m261.8 89.157a174.36 174.36 0 0 0 68.4 0l5.8-1.157 32 37.333v-5.333a72 72 0 0 0 -144 0v5.331l32-37.331z" fill="#7a432a"/><circle cx="260" cy="147.996" fill="#7a432a" r="12"/><circle cx="332" cy="147.996" fill="#7a432a" r="12"/><path d="m112 488a32 32 0 0 1 -32-32v-128h64v128a32 32 0 0 1 -32 32z" fill="#49648e"/><path d="m64 168v32h48v32h-48a25.887 25.887 0 0 0 14.311 23.155l33.689 16.845v120c0 13 9.731 24.644 22.709 25.324a24 24 0 0 0 25.291-23.966v-225.358z" fill="#f35244"/><path d="m160 120h-56v48h-40v-48a40 40 0 0 1 40-40h16a40.015 40.015 0 0 1 40 40z" fill="#e0e0de"/><path d="m64 200h48v32h-48z" fill="#d6d6d4"/><path d="m160 120h-56v48h-40v-13.7l70.02-71.77a40.057 40.057 0 0 1 25.98 37.47z" fill="#d6d6d4"/><path d="m96 264 16 8v120c0 13 9.731 24.644 22.709 25.324a24 24 0 0 0 25.291-23.966v-193.358z" fill="#ea4a3b"/><path d="m112 328h48v40h-48z" fill="#de4132"/><rect fill="#fec9a3" height="80" rx="16" width="80" x="80" y="272"/><path d="m144 272h-32a16 16 0 0 1 16 16v48a16 16 0 0 1 -16 16h32a16 16 0 0 0 16-16v-48a16 16 0 0 0 -16-16z" fill="#fec093"/><path d="m379.542 111.8a24.289 24.289 0 0 1 -28.27 23.86l-21.94-3.66a192.325 192.325 0 0 0 -63.12 0l-21.94 3.66a24.247 24.247 0 0 1 -26.5-32.92h160a24.361 24.361 0 0 1 1.77 9.06z" fill="#49648e"/><path d="m377.772 70.737v32h-160v-32a48 48 0 0 1 48-48h64a47.982 47.982 0 0 1 15.18 2.46c.89.3 1.77.62 2.63.97a47.98 47.98 0 0 1 30.19 44.57z" fill="#425b82"/><path d="m377.772 70.737v32h-136c48-16 81.59-44.03 105.81-76.57a47.98 47.98 0 0 1 30.19 44.57z" fill="#3c5174"/><path d="m379.542 111.8a24.289 24.289 0 0 1 -28.27 23.86l-21.94-3.66a191.346 191.346 0 0 0 -20.52-2.29c16.84-7.09 30.66-15.9 40.81-26.97h28.15a24.361 24.361 0 0 1 1.77 9.06z" fill="#425b82"/><path d="m272 64h48v16h-48z" fill="#e0e0de"/><path d="m304 64h16v16h-16z" fill="#d6d6d4"/><path d="m272 80h48v16h-48z" fill="#3c5174"/></svg>