<svg width="562" height="452" viewBox="0 0 562 452" fill="none" xmlns="http://www.w3.org/2000/svg"><g id="my f svg"><g id="Group 45"><path id="Rectangle 246" d="M562 9.56007H170.797V369.401H562V9.56007Z" fill="#E6E6E6"/><path id="Rectangle 264" d="M548.206 9.56007H170.797V30.9962H548.206V9.56007Z" fill="#6C63FF"/><path id="Rectangle 259" d="M479.869 142.13H174.55V242.153H479.869V142.13Z" fill="white"/><g id="Group 33"><path id="Rectangle 250" d="M445.351 166.189H286.864V175.441H445.351V166.189Z" fill="#E6E6E6"/><path id="Rectangle 251" d="M343.372 189.317H286.864V198.569H343.372V189.317Z" fill="#E6E6E6"/><path id="Rectangle 252" d="M399.438 212.445H286.864V221.696H399.438V212.445Z" fill="#E6E6E6"/></g><path id="Ellipse 194" d="M195.757 23.7694C197.222 23.7694 198.41 22.1818 198.41 20.2234C198.41 18.265 197.222 16.6774 195.757 16.6774C194.293 16.6774 193.105 18.265 193.105 20.2234C193.105 22.1818 194.293 23.7694 195.757 23.7694Z" fill="white"/><path id="Ellipse 195" d="M205.825 23.7694C207.29 23.7694 208.477 22.1818 208.477 20.2234C208.477 18.265 207.29 16.6774 205.825 16.6774C204.36 16.6774 203.173 18.265 203.173 20.2234C203.173 22.1818 204.36 23.7694 205.825 23.7694Z" fill="white"/><path id="Ellipse 246" d="M185.664 23.7694C187.128 23.7694 188.316 22.1818 188.316 20.2234C188.316 18.265 187.128 16.6774 185.664 16.6774C184.199 16.6774 183.011 18.265 183.011 20.2234C183.011 22.1818 184.199 23.7694 185.664 23.7694Z" fill="white"/><g id="Frame 2"><g id="Frame 3"><path id="Rectangle 247" d="M479.378 39.2372H174.059V135.413H479.378V39.2372Z" fill="white"/><g id="Group 31"><path id="Rectangle 250_2" d="M445.44 61.2202H293.856V70.4397H445.44V61.2202Z" fill="#E6E6E6"/><path id="Rectangle 251_2" d="M347.903 84.2686H293.856V93.4881H347.903V84.2686Z" fill="#E6E6E6"/><path id="Rectangle 252_2" d="M401.527 107.317H293.856V116.536H401.527V107.317Z" fill="#E6E6E6"/></g><g id="Frame 1"><path id="Vector" d="M257.651 52.7235H199.374V121.403H257.651V52.7235Z" fill="#E6E6E6"/><path id="Vector_2" d="M222.01 94.252C227.451 94.252 231.862 89.461 231.862 83.5511C231.862 77.6411 227.451 72.8502 222.01 72.8502C216.57 72.8502 212.159 77.6411 212.159 83.5511C212.159 89.461 216.57 94.252 222.01 94.252Z" fill="#FFB9B9"/><path id="Vector_3" d="M218.162 91.744C218.162 91.744 219.394 98.0976 219.394 98.7664C219.394 99.4352 225.243 102.445 225.243 102.445L230.476 101.442L232.323 95.4224C232.323 95.4224 229.245 90.4063 229.245 88.3999L218.162 91.744Z" fill="#FFB9B9"/><path id="Vector_4" d="M213.467 74.9297C213.467 74.9297 216.595 67.5685 222.59 69.2672C228.585 70.966 231.973 73.5141 232.234 76.0622C232.494 78.6103 232.103 82.4325 232.103 82.4325C232.103 82.4325 231.452 77.1947 227.282 78.3272C223.111 79.4597 216.595 78.6103 216.595 78.6103L215.553 88.8028C215.553 88.8028 214.38 86.9625 213.077 88.095C211.773 89.2275 209.297 77.1947 213.467 74.9297Z" fill="#2F2E41"/><path id="Vector_5" d="M253.256 118.831L250.795 106.791C249.561 102.777 246.485 99.4359 246.485 99.4359L231.304 93.6362H231.3C231.27 95.094 230.818 96.5044 230.007 97.6665C229.197 98.8286 228.069 99.6831 226.785 100.108C222.165 101.777 218.985 96.1536 218.985 96.1536L206.152 106.791C206.152 106.791 202.151 110.472 202.461 117.495L202.035 121.403H254.44L253.256 118.831Z" fill="#6C63FF"/></g></g></g><g id="Frame 4"><g clip-path="url(#clip0)"><path id="Rectangle 247_2" d="M482.472 252.322H175.341V357.164H482.472V252.322Z" fill="white"/><g id="Group 31_2"><path id="Rectangle 250_3" d="M445.533 274.718H294.708V284.127H445.533V274.718Z" fill="#E6E6E6"/><path id="Rectangle 251_3" d="M348.484 298.24H294.708V307.648H348.484V298.24Z" fill="#E6E6E6"/><path id="Rectangle 252_3" d="M401.84 321.761H294.708V331.17H401.84V321.761Z" fill="#E6E6E6"/></g><g id="Frame 5"><g clip-path="url(#clip1)"><path id="Vector_6" d="M259.391 260.699H197.047V339.565H259.391V260.699Z" fill="#E6E6E6"/><path id="Vector_7" d="M240.091 339.565H218.677L217.497 325.999L217.427 325.174L217.282 323.538L216.69 316.7L215.949 324.045L214.385 339.565H210.494L210.639 334.734L210.784 329.836L210.846 327.862L211.645 301.01C211.583 296.755 212.738 292.597 214.927 289.192C216.142 287.347 217.71 285.859 219.506 284.846C221.301 283.833 223.275 283.323 225.27 283.357C227.305 283.349 229.314 283.891 231.139 284.94C232.965 285.989 234.557 287.517 235.791 289.404C238.053 292.844 239.264 297.067 239.23 301.401L239.599 317.655L240.091 339.565Z" fill="#2F2E41"/><path id="Vector_8" d="M225.27 310.619C230.472 310.619 234.689 305.702 234.689 299.636C234.689 293.571 230.472 288.653 225.27 288.653C220.068 288.653 215.851 293.571 215.851 299.636C215.851 305.702 220.068 310.619 225.27 310.619Z" fill="#FBBEBE"/><path id="Vector_9" d="M220.56 307.481C220.56 307.481 223.252 318.072 220.56 321.21C217.869 324.348 217.196 325.525 217.196 325.525L224.934 337.684L238.39 318.464C238.39 318.464 228.97 315.326 231.325 306.697L220.56 307.481Z" fill="#FBBEBE"/><path id="Vector_10" d="M249.619 339.565H241.672L241.54 337.977L241.42 336.51L245.078 335.975L249.49 335.333L249.54 336.978L249.619 339.565Z" fill="#FBBEBE"/><path id="Vector_11" d="M250.164 336.9C250.164 336.9 248.818 327.094 247.809 323.171C246.8 319.249 245.791 319.249 245.791 319.249H245.79L245.79 319.248C244.603 317.863 241.747 317.617 239.599 317.655C238.092 317.675 236.933 317.829 236.933 317.829L224.935 332.587L218.892 323.22V323.215C218.348 323.264 217.809 323.372 217.282 323.538C216.829 323.673 216.383 323.842 215.949 324.045C214.078 324.977 212.353 326.267 210.846 327.862H210.842C209.973 328.774 209.459 329.445 209.459 329.445C208.129 332.671 207.126 336.068 206.471 339.565H244.921L245.008 337.548V337.544L250.164 336.9Z" fill="#6C63FF"/><path id="Vector_12" d="M217.365 297.871C223.448 294.047 225.947 294.209 233.512 297.871L235.53 292.137C235.529 291.058 235.161 290.022 234.506 289.259C233.851 288.496 232.964 288.066 232.038 288.065H218.502C217.576 288.066 216.689 288.496 216.034 289.259C215.379 290.022 215.011 291.058 215.01 292.137L217.365 297.871Z" fill="#2F2E41"/></g></g></g></g><g id="Frame 1_2"><path id="Vector_13" d="M259.429 155.035H199.358V229.948H259.429V155.035Z" fill="#E6E6E6"/><path id="Vector_14" d="M246.504 229.948L247.872 222.265L249.144 221.646L249.152 221.651C249.268 221.701 250.651 222.375 250.651 224.928C250.651 225.442 250.584 227.289 250.472 229.948H246.504Z" fill="#575A89"/><path id="Vector_15" d="M232.136 203.112C238.271 203.112 243.245 197.395 243.245 190.343C243.245 183.291 238.271 177.574 232.136 177.574C226.001 177.574 221.027 183.291 221.027 190.343C221.027 197.395 226.001 203.112 232.136 203.112Z" fill="#FFB8B8"/><path id="Vector_16" d="M239.079 197.792L238.153 219.606L223.804 210.029L225.656 197.792H239.079Z" fill="#FFB8B8"/><path id="Vector_17" d="M243.246 220.67L242.304 229.948H234.771L226.596 211.891L224.291 206.807L223.186 205.978L224.466 205.643L225.475 206.482L236.765 215.884L238.576 209.636L238.623 209.475L239.078 207.903L243.246 220.67Z" fill="#6C63FF"/><path id="Vector_18" d="M225.424 177.84C225.424 177.84 226.813 169.859 234.682 171.455L233.756 171.987C233.756 171.987 241.162 170.923 240.236 175.712C240.236 175.712 246.254 179.968 244.865 184.757C244.048 187.532 243.429 190.379 243.013 193.269L241.625 191.673C241.625 191.673 240.236 181.032 231.905 182.096C225.656 182.894 223.11 186.286 222.459 188.73C222.159 189.88 221.777 190.998 221.316 192.074L220.796 192.205C220.796 192.205 218.019 180.5 225.424 177.84Z" fill="#2F2E41"/><path id="Vector_19" d="M249.152 221.651L249.144 221.646L243.246 215.348V211.094L238.691 206.968L238.624 209.475L238.153 226.524L230.58 214.55L225.475 206.482L224.558 205.038L224.781 203.686L221.954 207.367L211.72 216.191L210.843 216.948C209.837 218.105 208.909 219.35 208.067 220.67C207.792 221.142 206.54 224.901 204.909 229.948H250.472C250.584 227.289 250.651 225.442 250.651 224.929C250.651 222.375 249.268 221.701 249.152 221.651Z" fill="#2F2E41"/></g></g><g id="Group 1"><path id="Vector_20" d="M157.196 201.344C157.196 201.344 158.24 209.009 155.631 212.074C153.023 215.14 148.85 235.577 148.85 235.577V247.84C148.85 247.84 165.021 224.848 168.151 215.651C171.281 206.454 168.151 199.301 168.151 199.301L157.196 201.344Z" fill="#FFC1C7"/><path id="Vector_21" d="M102.684 382.217C102.684 382.217 90.1647 384.772 89.643 382.217C89.3094 380.629 88.7841 379.085 88.0781 377.619C88.0781 377.619 76.7526 378.081 79.6848 387.798C79.9862 388.776 80.6468 389.611 81.5394 390.141C84.2558 391.769 90.5925 395.572 93.8162 397.546C96.4778 399.175 100.413 397.687 102.914 396.395C103.609 396.04 104.167 395.473 104.507 394.781C104.846 394.089 104.947 393.308 104.795 392.555L102.684 382.217Z" fill="#3F3D56"/><path id="Vector_22" d="M155.631 163.535L155.852 163.778C158.546 166.745 160.66 170.172 162.089 173.888C165.513 182.795 172.874 204.751 170.237 206.965C166.586 210.03 156.153 212.074 155.631 211.563C155.11 211.052 144.677 179.374 144.677 179.374L155.631 163.535Z" fill="#3F3D56"/><path id="Vector_23" d="M138.678 380.685C138.678 380.685 151.197 383.239 151.719 380.685C152.053 379.096 152.578 377.553 153.284 376.086C153.284 376.086 164.631 376.549 161.669 386.293C161.372 387.253 160.723 388.072 159.848 388.593C157.145 390.213 150.78 394.033 147.546 396.013C145.115 397.501 141.623 396.389 139.131 395.201C138.237 394.772 137.514 394.065 137.074 393.191C136.635 392.317 136.503 391.325 136.7 390.37L138.678 380.685Z" fill="#3F3D56"/><path id="Vector_24" d="M146.503 246.307C146.503 246.307 151.197 252.949 149.632 273.387C148.067 293.825 146.503 315.284 146.503 315.284C146.503 315.284 157.979 379.663 154.327 381.195C150.676 382.728 138.678 384.261 137.113 382.728C135.548 381.195 128.245 321.415 128.245 321.415L121.463 272.365L111.031 328.569C111.031 328.569 105.292 383.239 101.119 385.794C98.136 387.62 92.2203 386.313 89.0893 385.419C88.5022 385.254 87.9887 384.9 87.6316 384.415C87.2745 383.929 87.0944 383.34 87.1202 382.742C87.5027 374.145 89.2197 340.215 93.2945 319.372C97.9894 295.357 88.5997 247.329 96.9461 246.307C105.292 245.285 146.503 246.307 146.503 246.307Z" fill="#2F2E41"/><path id="Vector_25" d="M123.55 145.141C130.753 145.141 136.591 139.422 136.591 132.368C136.591 125.313 130.753 119.594 123.55 119.594C116.348 119.594 110.509 125.313 110.509 132.368C110.509 139.422 116.348 145.141 123.55 145.141Z" fill="#FFC1C7"/><path id="Vector_26" d="M87.0347 207.987C87.0347 207.987 85.9915 215.651 88.5997 218.716C91.2079 221.782 95.3811 233.534 95.3811 233.534V245.796C95.3811 245.796 79.21 231.49 76.0801 222.293C72.9503 213.096 76.0801 205.943 76.0801 205.943L87.0347 207.987Z" fill="#FFC1C7"/><path id="Vector_27" d="M133.983 137.477C133.983 137.477 130.332 153.827 133.983 155.871C137.635 157.915 112.074 155.871 112.074 155.871C112.074 155.871 117.812 142.075 115.204 137.477C112.596 132.878 133.983 137.477 133.983 137.477Z" fill="#FFC1C7"/><path id="Vector_28"d="M26.9872 8.82701C26.9872 8.82701 29.0738 -0.369913 36.8985 0.651968C44.7232 1.67385 49.9397 1.16291 51.5047 6.27231C53.0696 11.3817 69.7623 15.4692 69.7623 15.4692C69.7623 15.4692 73.9355 15.9802 73.4138 22.6224C72.8922 29.2646 62.4593 53.7897 62.4593 53.7897C62.4593 53.7897 62.9809 74.2273 65.5891 83.4243C68.1974 92.6212 68.1974 103.862 62.4593 106.417C56.7211 108.971 20.7275 118.168 12.3811 106.928C12.3811 106.928 7.6863 90.5774 10.8162 83.9352C13.9461 77.293 10.2945 51.235 10.2945 51.235L0.38324 29.7756C0.38324 29.7756 3.51312 19.5568 12.3811 16.4911C17.6293 14.7008 22.558 12.1146 26.9872 8.82701V8.82701Z" fill="#3F3D56"/><path id="Vector_29" d="M87.5564 170.177L83.3832 174.776C83.3832 174.776 70.8637 204.921 74.5153 207.987C78.1668 211.052 88.5997 213.096 89.1214 212.585C89.643 212.074 98.511 186.016 98.511 186.016L87.5564 170.177Z" fill="#3F3D56"/><path id="Vector_30" d="M138.678 124.703C138.678 124.703 136.591 126.236 136.07 129.813C135.548 133.389 132.345 127.775 131.599 135.181C130.853 142.586 118.334 147.696 113.639 144.119C108.944 140.543 101.119 118.061 112.074 114.485C123.028 110.908 133.983 111.419 136.07 114.996C138.156 118.572 138.678 124.703 138.678 124.703Z" fill="#2F2E41"/></g></g><defs><clipPath id="clip0"><rect x="174.584" y="247.797" width="311.675" height="109.367" fill="white"/></clipPath><clipPath id="clip1"><rect x="181.541" y="260.136" width="92.2967" height="83.0069" fill="white"/></clipPath></defs></svg>
