<svg width="1038" height="773" viewBox="0 0 1038 773" fill="none" xmlns="http://www.w3.org/2000/svg">
<g clip-path="url(#clip0)">
<path opacity="0.1" d="M104.4 77.33C97.94 80.01 91.31 83.45 87.76 89.48C84 95.85 84.45 103.76 85.15 111.13C91.25 175.05 107.32 243.03 79.57 300.93C66.1 329.02 43.57 351.53 25.65 377.04C7.73 402.55 -5.80001 434.4 2.51999 464.41C12.68 501.08 50.6 521.41 76.16 549.63C92.89 568.08 104.62 590.5 120.23 609.91C135.84 629.32 157.23 646.42 182.15 647.56C217.99 649.21 247.15 618.26 282.29 611.09C318.29 603.75 354.54 622.43 383.73 644.79C412.92 667.15 439.47 694.24 473.48 708.2C511.04 723.63 553.38 721.27 592.92 730.54C628.92 738.99 662.06 756.96 697.8 766.54C733.54 776.12 775.43 775.54 803.12 751.07C839.21 719.07 836.37 662.07 859.42 619.74C880.83 580.41 922.74 556.93 950.95 522.16C1001.71 459.58 1000.05 363.93 956.95 295.87C913.85 227.81 835.78 186.6 755.95 175.87C719.95 171.04 682.88 171.7 648.27 160.71C555.63 131.31 500.5 25.97 405.92 4.05001C345.8 -9.85999 287.33 14.23 236.12 43.88C191.67 69.62 150.66 58.14 104.4 77.33Z" fill="#FF6363"/>
<path d="M521.94 746.41C721.867 746.41 883.94 584.337 883.94 384.41C883.94 184.483 721.867 22.41 521.94 22.41C322.013 22.41 159.94 184.483 159.94 384.41C159.94 584.337 322.013 746.41 521.94 746.41Z" fill="url(#paint0_linear)"/>
<path d="M521.94 740.41C718.553 740.41 877.94 581.023 877.94 384.41C877.94 187.797 718.553 28.41 521.94 28.41C325.327 28.41 165.94 187.797 165.94 384.41C165.94 581.023 325.327 740.41 521.94 740.41Z" fill="#FF6363"/>
<path d="M518 667C674.297 667 801 540.297 801 384C801 227.703 674.297 101 518 101C361.703 101 235 227.703 235 384C235 540.297 361.703 667 518 667Z" fill="#DDE1EC"/>
<path opacity="0.3" d="M529.94 151.41H513.94V401.41H529.94V151.41Z" fill="#535461"/>
<g opacity="0.1">
<path opacity="0.1" d="M764.94 378.41H538.94V398.41H764.94V378.41Z" fill="black"/>
<path opacity="0.1" d="M379.382 303.584L370.103 321.302L512.305 395.769L521.583 378.052L379.382 303.584Z" fill="black"/>
<path opacity="0.1" d="M521.94 418.41C538.509 418.41 551.94 404.979 551.94 388.41C551.94 371.841 538.509 358.41 521.94 358.41C505.371 358.41 491.94 371.841 491.94 388.41C491.94 404.979 505.371 418.41 521.94 418.41Z" fill="black"/>
</g>
<path d="M764.94 374.41H538.94V394.41H764.94V374.41Z" fill="#535461"/>
<path d="M521.649 374.075L379.447 299.607L370.169 317.325L512.37 391.792L521.649 374.075Z" fill="#535461"/>
<path d="M521.94 414.41C538.509 414.41 551.94 400.979 551.94 384.41C551.94 367.841 538.509 354.41 521.94 354.41C505.371 354.41 491.94 367.841 491.94 384.41C491.94 400.979 505.371 414.41 521.94 414.41Z" fill="#535461"/>
<g opacity="0.1">
<path opacity="0.1" d="M260.92 418.41C260.92 262.11 387.62 135.41 543.92 135.41C587.789 135.371 631.065 145.548 670.32 165.133C709.575 184.719 743.73 213.176 770.08 248.25C721.92 160.73 628.92 101.41 521.92 101.41C365.62 101.41 238.92 228.11 238.92 384.41C238.828 445.812 258.798 505.562 295.79 554.57C272.849 512.859 260.852 466.014 260.92 418.41V418.41Z" fill="black"/>
</g>
</g>
<defs>
<linearGradient id="paint0_linear" x1="521.94" y1="746.41" x2="521.94" y2="22.41" gradientUnits="userSpaceOnUse">
<stop stop-color="#808080" stop-opacity="0.25"/>
<stop offset="0.54" stop-color="#808080" stop-opacity="0.12"/>
<stop offset="1" stop-color="#808080" stop-opacity="0.1"/>
</linearGradient>
<clipPath id="clip0">
<rect width="1037.94" height="772.29" fill="white"/>
</clipPath>
</defs>
</svg>
