<svg width="74" height="113" viewBox="0 0 74 113" fill="none" xmlns="http://www.w3.org/2000/svg">
<path d="M26.9872 8.82701C26.9872 8.82701 29.0738 -0.369913 36.8985 0.651968C44.7232 1.67385 49.9397 1.16291 51.5047 6.27231C53.0696 11.3817 69.7623 15.4692 69.7623 15.4692C69.7623 15.4692 73.9355 15.9802 73.4138 22.6224C72.8922 29.2646 62.4593 53.7897 62.4593 53.7897C62.4593 53.7897 62.9809 74.2273 65.5891 83.4243C68.1974 92.6212 68.1974 103.862 62.4593 106.417C56.7211 108.971 20.7275 118.168 12.3811 106.928C12.3811 106.928 7.6863 90.5774 10.8162 83.9352C13.9461 77.293 10.2945 51.235 10.2945 51.235L0.38324 29.7756C0.38324 29.7756 3.51312 19.5568 12.3811 16.4911C17.6293 14.7008 22.558 12.1146 26.9872 8.82701V8.82701Z" fill="#3F3D56"/>
</svg>
