<svg id="Layer_1" enable-background="new 0 0 64 64" height="512" viewBox="0 0 64 64" width="512" xmlns="http://www.w3.org/2000/svg"><path d="m48.9 39.4-7.9-3.4h-18l-7.9 3.4c-3.7 1.6-6.1 5.2-6.1 9.2v12.4h46v-12.4c0-4-2.4-7.6-6.1-9.2z" fill="#727272"/><path d="m18 47h4l-1.9-9.7-4.1 1.7z" fill="#59596b"/><path d="m46 47h-28l-2 14h32z" fill="#3a3a51"/><path d="m46 47h-4l1.9-9.7 4.1 1.7z" fill="#59596b"/><path d="m44 25h-2v7l3.2-2.4c.5-.4.8-1 .8-1.6v-1c0-1.1-.9-2-2-2z" fill="#ce7c5f"/><path d="m20 25c-1.1 0-2 .9-2 2v1c0 .6.3 1.2.8 1.6l3.2 2.4v-7z" fill="#ce7c5f"/><path d="m32 6c6.1 0 11 4.9 11 11v1h-22v-1c0-6.1 4.9-11 11-11z" fill="#ffa500"/><path d="m21 21v9c0 4.2 2.6 8 6.6 9.4l1 .4c2.2.8 4.6.8 6.8 0l1-.4c4-1.4 6.6-5.2 6.6-9.4v-9z" fill="#d8927c"/><path d="m32 3c-2.2 0-4 1.8-4 4v6h8v-6c0-2.2-1.8-4-4-4z" fill="#e28b00"/><path d="m20 17h24c1.1 0 2 .9 2 2 0 1.1-.9 2-2 2h-24c-1.1 0-2-.9-2-2 0-1.1.9-2 2-2z" fill="#e28b00"/><path d="m21 27 2.4 2.4c.4.4.9.6 1.4.6h4.1c.7 0 1.3-.3 1.7-.9l.6-.9c.3-.5.9-.6 1.4-.3.1.1.2.2.3.3l.6.9c.4.6 1 .9 1.7.9h4.1c.5 0 1-.2 1.4-.6l2.3-2.4v-6h-22z" fill="#3a3a51"/><path d="m53 33-16 16 5 6 3-3h3v-3h3v-4h3v-4h3v-4z" fill="#d3d1cf"/><path d="m42.6 57.4-2.5 2.5c-1.2 1.2-3.1 1.2-4.2 0l-3.5-3.5c-.8-.8-.8-2 0-2.8l4.6-4.6 5.6 5.6c.8.8.8 2 0 2.8z" fill="#2b2b2b"/><path d="m41 53-1.6 1.6c-.8.8-2 .8-2.8 0l-2.6-2.6 3-3z" fill="#3f3f3f"/><path d="m32 3c-.3 0-.7.1-1 .1v9.9h2v-9.9c-.3 0-.7-.1-1-.1z" fill="#ffa500"/><path d="m21 21v6l2.4 2.4c.4.4.9.6 1.4.6h4.1c.7 0 1.3-.3 1.7-.9l.6-.9c.2-.3.5-.4.8-.4v-6.8z" fill="#59596b"/></svg>